<svg id="Layer_1" data-name="Layer 1" xmlns="http://www.w3.org/2000/svg" width="16000" height="8192"
    viewBox="0 0 16000 8192">
    <g id="Root">
        <g id="B1">
            <polygon id="_01" data-name="01"
                points="11162.19 4443.45 11162.19 6024.51 14190.7 6024.51 14190.7 5579.14 14604.89 5579.14 14604.89 5280.74 14649.43 5280.74 14649.43 4042.62 13656.26 4042.62 13656.26 4559.24 12591.83 4559.24 12591.83 4430.09 11162.19 4443.45"
                fill="#fc0606" opacity="0" stroke="#000" stroke-miterlimit="10" />
            <polygon id="_02" data-name="02"
                points="11175.55 3637.33 11175.55 2016.19 11148.83 2016.19 11148.83 1695.53 12182.09 1695.53 12182.09 2011.74 14186.25 2011.74 14186.25 2461.56 14644.98 2461.56 14644.98 4042.62 13647.35 4042.62 13647.35 3490.36 12587.37 3490.36 12587.37 3623.97 11175.55 3637.33"
                fill="#fc0606" opacity="0" stroke="#000" stroke-miterlimit="10" />
            <polygon id="_03" data-name="03"
                points="11175.55 3623.97 11175.55 2016.19 11139.92 2016.19 11139.92 1699.98 10030.96 1699.98 10030.96 2011.74 8151.5 2011.74 8151.5 2452.65 7666.05 2452.65 7666.05 4033.71 8685.94 4033.71 8685.94 3494.81 9745.92 3494.81 9745.92 3619.52 11175.55 3623.97"
                fill="#fc0606" opacity="0" stroke="#000" stroke-miterlimit="10" />
            <polygon id="_04" data-name="04"
                points="11166.65 4443.45 10612.57 4442.23 10608.84 4151.13 9742.99 4158.59 9745.92 4443.45 9745.92 4572.61 8681.49 4572.61 8681.49 4029.26 7674.96 4029.26 7674.96 5574.69 8160.41 5574.69 8160.41 6002.24 11166.65 6002.24 11166.65 4443.45"
                fill="#fc0606" opacity="0" stroke="#000" stroke-miterlimit="10" />
        </g>
        <g id="B2">
            <polygon id="_01-2" data-name="01"
                points="4165.45 4447.9 4722.22 4447.9 4717.59 4155.73 5586.18 4158.82 5586.18 4568.15 6659.52 4568.15 6659.52 4042.62 7666.05 4042.62 7666.05 5574.69 7185.05 5574.69 7185.05 6020.05 4165.45 6020.05 4165.45 4447.9"
                fill="#fc0606" opacity="0" stroke="#000" stroke-miterlimit="10" />
            <polygon id="_02-2" data-name="02"
                points="4162.38 3625.4 5593.5 3625.4 5593.5 3512.42 6643.3 3512.42 6643.3 4044.38 7664.86 4044.38 7664.86 2453.2 7179.97 2453.2 7179.97 2005.98 5325.17 2005.98 5325.17 1699.98 4162.38 1699.98 4162.38 3625.4"
                fill="#fc0606" opacity="0" stroke="#000" stroke-miterlimit="10" />
            <polygon id="_03-2" data-name="03"
                points="3216.15 4096 3216.15 3954.93 4167.09 3954.93 4167.09 1690.57 3037.26 1690.57 3037.26 1765.89 2043.95 1765.89 2043.95 1671.74 1012.98 1671.74 1012.98 2796.86 688.15 2796.86 688.15 4034.97 1690.88 4034.97 1690.88 3686.6 2735.97 3686.6 2735.97 4096 3216.15 4096"
                fill="#fc0606" opacity="0" stroke="#000" stroke-miterlimit="10" />
            <polygon id="_04-2" data-name="04"
                points="4167.09 4439.82 4167.09 6026.29 1135.38 6026.29 1135.38 5574.36 716.4 5574.36 716.4 5273.07 678.74 5273.07 678.74 4030.26 1690.88 4030.26 1690.88 4566.93 2750.09 4566.93 2750.09 4435.11 4167.09 4439.82"
                fill="#fc0606" opacity="0" stroke="#000" stroke-miterlimit="10" />
        </g>
    </g>
</svg>