<svg id="Layer_1" data-name="Layer 1" xmlns="http://www.w3.org/2000/svg" xmlns:xlink="http://www.w3.org/1999/xlink"
    width="16000" height="8192" viewBox="0 0 16000 8192">
    <g id="Root">
        <g id="B9">
            <polygon id="_01" data-name="01"
                points="11160.15 4443.24 11160.15 6024.3 14188.66 6024.3 14188.66 5578.93 14602.85 5578.93 14602.85 5280.53 14647.39 5280.53 14647.39 4042.41 13654.22 4042.41 13654.22 4559.03 12589.79 4559.03 12589.79 4429.88 11160.15 4443.24"
                fill="#fc0606" opacity="0" stroke="#000" stroke-miterlimit="10" />
            <polygon id="_02" data-name="02"
                points="11171.51 3651.12 11171.51 2029.98 11144.79 2029.98 11144.79 1709.31 12178.05 1709.31 12178.05 2025.53 14182.21 2025.53 14182.21 2475.35 14640.94 2475.35 14640.94 4056.41 13643.31 4056.41 13643.31 3504.15 12583.33 3504.15 12583.33 3637.76 11171.51 3651.12"
                fill="#fc0606" opacity="0" stroke="#000" stroke-miterlimit="10" />
            <polygon id="_03" data-name="03"
                points="11162.01 3625.27 11169.63 2029.98 11144.23 2029.98 11141.68 1713.77 10036.65 1713.77 10034.11 2025.53 8166.99 2025.53 8166.99 2454.19 7691.94 2451.57 7706.01 4034.26 8708.08 4029.18 8700.45 3508.6 9752.14 3508.6 9747.06 3622.73 11162.01 3625.27"
                fill="#fc0606" opacity="0" stroke="#000" stroke-miterlimit="10" />
            <polygon id="_04" data-name="04"
                points="11167.17 4443.03 10618.31 4437.59 10619.76 4161.35 9756.11 4164 9756.11 4458.97 9753.45 4573.24 8709.13 4578.64 8706.45 4039.11 7686.02 4039.11 7686.02 5580.38 8180.29 5583.04 8180.29 6005.56 11169.83 6005.56 11167.17 4443.03"
                fill="#fc0606" opacity="0" stroke="#000" stroke-miterlimit="10" />
        </g>
        <g id="B10">
            <polygon id="_01-2" data-name="01"
                points="4181.41 4445.03 4738.18 4441.87 4733.55 4163.59 5602.14 4165.27 5602.14 4572.27 6654.09 4570.55 6650.29 4041.22 7655.77 4040.17 7656.61 5579.66 7173.82 5579.67 7177.11 6019.94 4181.41 6015.44 4181.41 4445.03"
                fill="#fc0606" opacity="0" stroke="#000" stroke-miterlimit="10" />
            <polygon id="_02-2" data-name="02"
                points="4186.34 3646.19 5617.46 3646.19 5617.46 3516.59 6652.49 3518.43 6650.13 4040.68 7650.86 4042.75 7650.73 2464.33 7203.93 2460.14 7203.93 2026.77 5331.63 2026.77 5333.7 1720.77 4186.34 1720.77 4186.34 3646.19"
                fill="#fc0606" opacity="0" stroke="#000" stroke-miterlimit="10" />
            <polygon id="_03-2" data-name="03"
                points="3210.11 4093.85 3210.11 3956.9 4161.05 3956.1 4161.05 1703.36 3031.22 1703.36 3031.22 1778.68 2037.91 1778.68 2037.91 1713.91 1006.94 1709.71 1006.94 2809.65 691.48 2809.65 691.48 4033.78 1684.84 4037.98 1684.84 3699.39 2729.93 3699.39 2729.93 4096.07 3210.11 4093.85"
                fill="#fc0606" opacity="0" stroke="#000" stroke-miterlimit="10" />
            <polygon id="_04-2" data-name="04"
                points="4152.05 4438.92 4152.05 6008.96 1120.34 6008.96 1120.34 5578.47 731.5 5583 729.24 5280.14 676.86 5277.7 677.96 4048.05 1702.35 4048.05 1701 4555.16 2724.24 4556.25 2723.6 4436.85 4152.05 4438.92"
                fill="#fc0606" opacity="0" stroke="#000" stroke-miterlimit="10" />
        </g>
    </g>
</svg>