<svg id="Layer_1" data-name="Layer 1" xmlns="http://www.w3.org/2000/svg" width="16000" height="8192"
    viewBox="0 0 16000 8192">
    <g id="Root">
        <g id="C13">
            <polygon id="_01" data-name="01"
                points="4407.44 3786.96 4407.44 4706.59 5583.41 4706.59 5583.41 4459.86 5883.01 4459.86 5883.01 3553.05 5295.02 3553.05 5295.02 3857.45 4636.54 3857.45 4636.54 3782.15 4407.44 3786.96"
                fill="#f90606" opacity="0" stroke="#000" stroke-miterlimit="10" />
            <polygon id="_02" data-name="02"
                points="4367.38 3423.27 4367.38 3380.01 4642.95 3380.01 4642.95 3245.43 5293.42 3245.43 5293.42 3551.44 5881.41 3551.44 5881.41 2646.24 5583.41 2646.24 5583.41 2391.49 4405.84 2391.49 4405.84 2277.74 3817.85 2277.74 3817.85 3426.48 4367.38 3423.27"
                fill="#f90606" opacity="0" stroke="#000" stroke-miterlimit="10" />
            <polygon id="_03" data-name="03"
                points="2345.74 3426.62 2612.65 3426.62 2612.65 3129.51 3262.85 3128.45 3262.85 3426.62 3810.36 3426.62 3810.36 2542.85 3528.48 2542.03 3530.93 2293.39 2939.18 2293.39 2938.77 2178.06 2345.74 2176.84 2345.74 3426.62"
                fill="#f90606" opacity="0" stroke="#000" stroke-miterlimit="10" />
            <polygon id="_04" data-name="04"
                points="2070.8 3505.66 2070.8 3428.66 2342.88 3428.66 2342.88 2381.41 1697.76 2381.41 1697.76 2282.16 1109.11 2282.16 1109.11 2242.8 513.62 2242.8 513.62 2838.3 274.05 2838.3 274.05 3599.78 883.23 3599.78 883.23 3363.63 1516.38 3363.63 1516.38 3507.37 2070.8 3505.66"
                fill="#f90606" opacity="0" stroke="#000" stroke-miterlimit="10" />
            <polygon id="_05" data-name="05"
                points="2068.8 3699.45 2068.8 3776.45 2340.88 3776.45 2340.88 4823.7 1695.76 4823.7 1695.76 4922.95 1107.11 4922.95 1107.11 4962.31 511.62 4962.31 511.62 4366.81 272.05 4366.81 272.05 3605.33 881.23 3605.33 881.23 3841.48 1514.38 3841.48 1514.38 3697.74 2068.8 3699.45"
                fill="#f90606" opacity="0" stroke="#000" stroke-miterlimit="10" />
            <polygon id="_06" data-name="06"
                points="2345.74 3780.2 2612.65 3780.2 2611.59 4082.01 3264.97 4083.07 3262.85 3780.2 3810.36 3780.2 3810.36 4663.97 3528.48 4664.79 3530.93 4913.43 2939.18 4913.43 2938.77 5028.76 2345.74 5029.98 2345.74 3780.2"
                fill="#f90606" opacity="0" stroke="#000" stroke-miterlimit="10" />
        </g>
        <g id="C15">
            <polygon id="_06-2" data-name="06"
                points="11513.43 3786.96 11513.43 4706.59 10337.46 4706.59 10337.46 4459.86 10037.86 4459.86 10037.86 3553.05 10625.85 3553.05 10625.85 3857.45 11284.33 3857.45 11284.33 3782.15 11513.43 3786.96"
                fill="#f90606" opacity="0" stroke="#000" stroke-miterlimit="10" />
            <polygon id="_05-2" data-name="05"
                points="11553.49 3423.27 11553.49 3380.01 11277.92 3380.01 11277.92 3245.43 10627.45 3245.43 10627.45 3551.44 10039.47 3551.44 10039.47 2646.24 10337.46 2646.24 10337.46 2391.49 11515.04 2391.49 11515.04 2277.74 12103.02 2277.74 12103.02 3426.48 11553.49 3423.27"
                fill="#f90606" opacity="0" stroke="#000" stroke-miterlimit="10" />
            <polygon id="_04-2" data-name="04"
                points="13575.13 3426.62 13308.23 3426.62 13308.23 3129.51 12658.02 3128.45 12658.02 3426.62 12110.52 3426.62 12110.52 2542.85 12392.39 2542.03 12389.94 2293.39 12981.69 2293.39 12982.1 2178.06 13575.13 2176.84 13575.13 3426.62"
                fill="#f90606" opacity="0" stroke="#000" stroke-miterlimit="10" />
            <polygon id="_03-2" data-name="03"
                points="13850.07 3505.66 13850.07 3428.66 13577.99 3428.66 13577.99 2381.41 14223.11 2381.41 14223.11 2282.16 14811.76 2282.16 14811.76 2242.8 15407.25 2242.8 15407.25 2838.3 15646.82 2838.3 15646.82 3599.78 15037.64 3599.78 15037.64 3363.63 14404.5 3363.63 14404.5 3507.37 13850.07 3505.66"
                fill="#f90606" opacity="0" stroke="#000" stroke-miterlimit="10" />
            <polygon id="_02-2" data-name="02"
                points="13852.07 3699.45 13852.07 3776.45 13579.99 3776.45 13579.99 4823.7 14225.11 4823.7 14225.11 4922.95 14813.76 4922.95 14813.76 4962.31 15409.25 4962.31 15409.25 4366.81 15648.82 4366.81 15648.82 3605.33 15039.64 3605.33 15039.64 3841.48 14406.5 3841.48 14406.5 3697.74 13852.07 3699.45"
                fill="#f90606" opacity="0" stroke="#000" stroke-miterlimit="10" />
            <polygon id="_01-2" data-name="01"
                points="13575.13 3780.2 13308.23 3780.2 13309.29 4082.01 12655.9 4083.07 12658.02 3780.2 12110.52 3780.2 12110.52 4663.97 12392.39 4664.79 12389.94 4913.43 12981.69 4913.43 12982.1 5028.76 13575.13 5029.98 13575.13 3780.2"
                fill="#f90606" opacity="0" stroke="#000" stroke-miterlimit="10" />
        </g>
        <g id="C14">
            <polyline id="_01-3" data-name="01"
                points="7964.95 3784.31 7964.95 4819.88 8556.71 4819.88 8556.71 4716.33 9737.26 4716.33 9737.26 4461.87 10027.22 4461.87 10027.22 3553.53 9444.34 3553.53 9444.34 3855.32 8790.45 3855.32 8790.45 3786.02"
                fill="#f90606" opacity="0" stroke="#000" stroke-miterlimit="10" />
            <polyline id="_04-3" data-name="04"
                points="7376.48 3784.31 7372.24 4716.33 6191.69 4716.33 6191.69 4461.87 5901.73 4461.87 5901.73 3553.53 6484.61 3553.53 6484.61 3855.32 7138.5 3855.32 7138.5 3786.02"
                fill="#f90606" opacity="0" stroke="#000" stroke-miterlimit="10" />
            <polyline id="_03-3" data-name="03"
                points="7143.5 3319.28 7957.11 3321.67 7957.11 2280.59 7376.75 2277.7 7377.24 2388.97 6196.69 2388.97 6196.69 2643.43 5906.73 2643.43 5906.73 3551.77 6489.61 3551.77 6489.61 3249.98 7143.5 3249.98 7143.5 3319.28"
                fill="#f90606" opacity="0" stroke="#000" stroke-miterlimit="10" />
            <polyline id="_02-3" data-name="02"
                points="8784.51 3319.28 7970.9 3321.67 7970.9 2280.59 8551.26 2277.7 8550.77 2388.97 9731.32 2388.97 9731.32 2643.43 10021.28 2643.43 10021.28 3551.77 9438.4 3551.77 9438.4 3249.98 8784.51 3249.98 8784.51 3319.28"
                fill="#f90606" opacity="0" stroke="#000" stroke-miterlimit="10" />
        </g>
    </g>
</svg>