<svg id="Layer_1" data-name="Layer 1" xmlns="http://www.w3.org/2000/svg" width="16000" height="8192"
    viewBox="0 0 16000 8192">
    <g id="Root">
        <g id="A11">
            <polygon id="_01" data-name="01"
                points="10550.86 4380.43 11131.72 4380.43 11131.72 4825.65 11574 4825.65 11574 5639.45 11329.27 5639.45 11329.27 5937.25 10550.86 5937.25 10550.86 4380.43"
                fill="#fc0000" opacity="0" stroke="#000" stroke-miterlimit="10" />
            <polygon id="_02" data-name="02"
                points="13375.56 4383.37 12025.13 4383.37 12025.13 4822.71 11582.85 4822.71 11582.85 5639.45 11824.63 5639.45 11824.63 5937.25 12594.2 5937.25 12594.2 5795.72 13375.56 5795.72 13375.56 4383.37"
                fill="#fc0000" opacity="0" stroke="#000" stroke-miterlimit="10" />
            <polygon id="_03" data-name="03"
                points="12933.28 4168.13 12933.28 3870.33 13714.64 3870.33 13714.64 3248.19 14613.94 3248.19 14613.94 4380.43 14961.87 4380.43 14961.87 4952.44 14616.89 4952.44 14616.89 5211.91 14204.1 5211.91 14204.1 5780.98 13372.61 5780.98 13372.61 5217.81 13947.58 5217.81 13947.58 4566.18 13375.56 4566.18 13375.56 4377.48 12933.28 4377.48 12933.28 4168.13"
                fill="#fc0000" opacity="0" stroke="#000" stroke-miterlimit="10" />
            <polygon id="_04" data-name="04"
                points="10999.04 3666.88 12924.43 3666.88 12924.43 3873.28 13723.49 3873.28 13723.49 2752.83 13416.84 2752.83 13416.84 2413.75 11842.32 2413.75 11842.32 2369.52 10999.04 2369.52 10999.04 3666.88"
                fill="#fc0000" opacity="0" stroke="#000" stroke-miterlimit="10" />
            <polygon id="_05" data-name="05"
                points="10996.09 3669.83 10996.09 2381.32 10158.7 2381.32 10158.7 2416.7 8575.34 2416.7 8575.34 2746.93 8268.69 2746.93 8268.69 3870.33 9064.8 3870.33 9064.8 3669.83 10996.09 3669.83"
                fill="#fc0000" opacity="0" stroke="#000" stroke-miterlimit="10" />
            <polygon id="_06" data-name="06"
                points="9767.4 5029.66 9196.91 5029.66 9196.91 4379.7 9063.51 4379.7 9063.51 3868.82 8277.32 3868.82 8277.32 2971.93 7488.28 2971.93 7488.28 5029.66 7831.71 5029.66 7831.71 5793.15 9406.94 5793.15 9406.94 5614.34 9767.4 5614.34 9767.4 5029.66"
                fill="#fc0000" opacity="0" stroke="#000" stroke-miterlimit="10" />
        </g>
        <g id="A12">
            <polygon id="_01-2" data-name="01"
                points="5883.32 4171.08 5883.32 3870.33 6676.48 3870.33 6676.48 2968.07 7457.84 2968.07 7457.84 5037.95 7130.56 5037.95 7130.56 5804.57 5547.19 5804.57 5547.19 5615.86 5178.62 5615.86 5178.62 5023.21 5747.69 5023.21 5747.69 4386.32 5883.38 4386.32 5883.32 4171.08"
                fill="#fc0000" opacity="0" stroke="#000" stroke-miterlimit="10" />
            <polygon id="_02-2" data-name="02"
                points="3953.36 3672.43 5879.26 3672.43 5879.26 3874.08 6676.81 3874.08 6676.81 2743.46 6370.93 2743.46 6370.93 2405.86 5584.71 2405.86 5584.71 2097.72 4791.69 2097.72 4791.69 2063.73 3953.36 2063.73 3953.36 3672.43"
                fill="#fc0000" opacity="0" stroke="#000" stroke-miterlimit="10" />
            <polygon id="_03-2" data-name="03"
                points="3953.36 3672.43 3953.36 2066 3103.7 2066 3103.7 2097.72 2319.74 2097.72 2319.74 2419.46 1526.72 2419.46 1526.72 2750.26 1232.17 2750.26 1232.17 3874.08 2020.66 3874.08 2020.66 3667.9 3953.36 3672.43"
                fill="#fc0000" opacity="0" stroke="#000" stroke-miterlimit="10" />
            <polygon id="_04-2" data-name="04"
                points="2016.11 4172.51 2016.11 3872.57 1238.01 3872.57 1238.01 2992.31 431.65 2992.31 431.65 5031.03 775.06 5031.03 775.06 5798.26 1555.33 5798.26 1555.33 5615.69 2809.43 5615.69 2809.43 5031.03 2231.28 5031.03 2231.28 4378.98 2013.93 4378.98 2016.11 4172.51"
                fill="#fc0000" opacity="0" stroke="#000" stroke-miterlimit="10" />
            <polygon id="_05-2" data-name="05"
                points="4452.73 5797.66 4452.73 4379.27 3816.17 4379.27 3816.17 5030.79 3245.82 5030.79 3245.82 4379.27 2807.91 4379.27 2807.91 5616.09 3613.23 5616.09 3613.23 5797.66 4452.73 5797.66"
                fill="#fc0000" opacity="0" stroke="#000" stroke-miterlimit="10" />
        </g>
    </g>
</svg>