<svg id="Layer_1" data-name="Layer 1" xmlns="http://www.w3.org/2000/svg" width="16000" height="8192"
    viewBox="0 0 16000 8192">
    <g id="Root">
        <g id="A3">
            <polygon id="_01" data-name="01"
                points="10539.21 4388.47 11113.21 4388.47 11113.21 4834.92 11559.66 4834.92 11559.66 5644.11 11306.54 5644.11 11306.54 5935.1 10539.21 5935.1 10539.21 4388.47"
                fill="#f70b0b" opacity="0" stroke="none" stroke-miterlimit="1" stroke-width="1" />
            <polygon id="_02" data-name="02"
                points="12006.1 4388.47 13360.44 4388.47 13360.44 5804.56 12577.14 5804.56 12577.14 5941.96 11807.65 5941.96 11807.65 5639.76 11559.66 5639.76 11559.66 4834.92 12004.58 4834.92 12006.1 4388.47"
                fill="#f70b0b" opacity="0" stroke="none" stroke-miterlimit="1" stroke-width="1" />
            <polygon id="_03" data-name="03"
                points="12913.17 4388.47 13361.2 4388.47 13361.2 5799.28 14183.15 5799.28 14183.15 5229.36 14596.59 5229.36 14596.59 4955.93 14949.08 4955.93 14949.08 4388.47 14594.94 4388.47 14594.94 3267.57 13697.23 3267.57 13697.23 3878.9 12913.17 3882.06 12913.17 4388.47"
                fill="#f70b0b" opacity="0" stroke="none" stroke-miterlimit="1" stroke-width="1" />
            <polygon id="_04" data-name="04"
                points="10982.81 3688.99 10982.81 2388.43 11826.9 2388.43 11826.9 2300.01 11918.4 2300.01 12212.28 2421.72 13403.25 2421.72 13403.25 2756.69 13702.96 2752.77 13702.96 3877.14 12917.46 3877.14 12917.46 3679.3 10982.81 3688.99"
                fill="#f70b0b" opacity="0" stroke="none" stroke-miterlimit="1" stroke-width="1" />
            <polygon id="_05" data-name="05"
                points="10985.82 3680.41 10985.82 2390.9 10148.01 2390.9 10148.01 2427.33 8567.08 2427.33 8567.08 2762.45 8261.1 2762.45 8261.1 3884.4 9055.2 3884.4 9055.2 3676.76 10985.82 3680.41"
                fill="#f70b0b" opacity="0" stroke="none" stroke-miterlimit="1" stroke-width="1" />
            <polygon id="_06" data-name="06"
                points="9053.28 4177.65 9053.28 3875.56 8269.32 3875.56 8269.32 2976.76 7477.88 2976.76 7477.88 5039 7814.93 5039 7814.93 5802.98 9387.83 5802.98 9387.83 5623.22 9757.33 5623.22 9757.33 5034.01 9175.61 5034.01 9175.61 4388.47 9050.78 4388.47 9053.28 4177.65"
                fill="#f70b0b" opacity="0" stroke="none" stroke-miterlimit="1" stroke-width="1" />
        </g>
        <g id="A4">
            <polygon id="_01-2" data-name="01"
                points="5877.74 4180.63 5877.74 3878.21 6662.89 3878.21 6662.89 2976.74 7453.85 2976.74 7453.85 5029.75 7128.16 5029.75 7128.16 5814.9 5534.6 5814.9 5534.6 5617.16 5174.02 5617.16 5174.02 5035.57 5743.98 5041.38 5743.98 4395.82 5877.74 4395.82 5877.74 4180.63"
                fill="#f70b0b" opacity="0" stroke="none" stroke-miterlimit="1" stroke-width="1" />
            <polygon id="_02-2" data-name="02"
                points="3944.77 3678.73 3944.77 2074.84 4781.25 2074.84 4781.25 2101.7 5590.86 2101.7 5590.86 2427.85 6381.3 2427.85 6381.3 2754 6665.24 2754 6665.24 3870.58 5870.97 3870.58 5870.97 3667.22 3944.77 3678.73"
                fill="#f70b0b" opacity="0" stroke="none" stroke-miterlimit="1" stroke-width="1" />
            <polygon id="_03-2" data-name="03"
                points="3944.77 3686.4 3944.77 2074.84 3085.27 2074.84 2981.67 1952.05 2858.88 1952.05 2858.88 2113.21 2310.18 2105.53 2310.18 2424.01 1515.91 2424.01 1515.91 2757.84 1212.78 2761.67 1212.78 3882.09 2014.73 3882.09 2014.73 3674.89 3944.77 3686.4"
                fill="#f70b0b" opacity="0" stroke="none" stroke-miterlimit="1" stroke-width="1" />
            <polygon id="_04-2" data-name="04"
                points="2014.73 4177.55 2014.73 3878.26 1228.13 3878.26 1228.13 3011.08 437.7 3011.08 437.7 5040.88 767.68 5040.88 767.68 5800.62 1558.12 5800.62 1558.12 5612.6 2797.49 5612.6 2797.49 5029.37 2229.6 5029.37 2229.6 4388.58 2014.73 4388.58 2014.73 4177.55"
                fill="#f70b0b" opacity="0" stroke="none" stroke-miterlimit="1" stroke-width="1" />
            <polygon id="_05-2" data-name="05"
                points="4439.75 4802.99 4439.75 4388.58 3810.47 4388.58 3810.47 5033.21 3250.26 5033.21 3250.26 4388.58 2801.32 4388.58 2801.32 5620.28 3603.27 5620.28 3603.27 5812.13 4439.75 5812.13 4439.75 4802.99"
                fill="#f70b0b" opacity="0" stroke="none" stroke-miterlimit="1" stroke-width="1" />
        </g>
    </g>
</svg>