<svg id="Layer_1" data-name="Layer 1" xmlns="http://www.w3.org/2000/svg" width="16000" height="8192"
    viewBox="0 0 16000 8192">
    <g id="Root">
        <g id="A19">
            <polygon id="_01" data-name="01"
                points="10776.77 4377.42 10776.77 5802.46 12366.81 5802.46 12366.81 5619.45 13152.83 5619.45 13152.83 4377.42 12714.82 4377.42 12714.82 5016.44 12138.8 5016.44 12138.8 4377.42 10776.77 4377.42"
                fill="#f90606" opacity="0" stroke="#000" stroke-miterlimit="10" />
            <polygon id="_02" data-name="02"
                points="13944.85 4170.41 13944.85 3873.41 14727.87 3873.41 14727.87 2970.38 15507.89 2970.38 15507.89 5019.44 15186.88 5019.44 15186.88 5790.46 13539.84 5790.46 13539.84 5616.45 13149.83 5616.45 13149.83 5031.44 13728.84 5031.44 13728.84 4380.42 13944.85 4380.42 13944.85 4170.41"
                fill="#f90606" opacity="0" stroke="#000" stroke-miterlimit="10" />
            <polygon id="_03" data-name="03"
                points="12006.8 3672.4 13944.85 3672.4 13944.85 3870.41 14736.87 3870.41 14736.87 2742.38 14427.86 2742.38 14427.86 2406.37 13635.84 2406.37 13635.84 2106.36 12849.82 2106.36 12849.82 2052.36 12006.8 2052.36 12006.8 3672.4"
                fill="#f90606" opacity="0" stroke="#000" stroke-miterlimit="10" />
            <polygon id="_04" data-name="04"
                points="12009.8 3669.4 12009.8 2064.36 11163.78 2064.36 11163.78 2106.36 10374.76 2106.36 10374.76 2415.37 9585.74 2415.37 9585.74 2736.38 9270.73 2736.38 9270.73 3864.41 10074.75 3864.41 10074.75 3669.4 12009.8 3669.4"
                fill="#f90606" opacity="0" stroke="#000" stroke-miterlimit="10" />
            <polygon id="_05" data-name="05"
                points="10074.75 4170.41 10074.75 3873.41 9288.73 3873.41 9288.73 2979.38 8499.71 2979.38 8499.71 5022.44 8829.72 5022.44 8829.72 5790.46 10413.76 5790.46 10413.76 5613.45 10779.77 5613.45 10779.77 5025.44 10209.75 5025.44 10209.75 4384.92 10074.75 4384.92 10074.75 4170.41"
                fill="#f90606" opacity="0" stroke="#000" stroke-miterlimit="10" />
        </g>
        <g id="A20">
            <polygon id="_01-2" data-name="01"
                points="6890.69 4174.72 6890.69 3871.45 7677.52 3871.45 7677.52 2969.87 8469.83 2969.87 8469.83 5035.32 8136.51 5035.32 8136.51 5800.3 6557.37 5800.3 6557.37 5611.79 6183.08 5611.79 6183.08 5032.59 6762.28 5032.59 6762.28 4385.09 6893.42 4385.09 6890.69 4174.72"
                fill="#f90606" opacity="0" stroke="#000" stroke-miterlimit="10" />
            <polygon id="_02-2" data-name="02"
                points="4954.46 3674.23 6891.74 3674.23 6891.74 3871.36 7680.25 3871.36 7680.25 2746.37 7374.36 2746.37 7374.36 2403.1 5800.74 2403.1 5800.74 2358.92 4954.46 2358.92 4954.46 3674.23"
                fill="#f90606" opacity="0" stroke="#000" stroke-miterlimit="10" />
            <polygon id="_03-2" data-name="03"
                points="3023.97 3670.83 4957.86 3670.83 4957.86 2372.51 4111.57 2372.51 4111.57 2416.7 2534.56 2416.7 2534.56 2739.58 2232.07 2739.58 2232.07 3867.96 3027.37 3867.96 3023.97 3670.83"
                fill="#f90606" opacity="0" stroke="#000" stroke-miterlimit="10" />
            <polygon id="_04-2" data-name="04"
                points="3020.58 4170.45 3020.58 3871.36 2235.47 3871.36 2235.47 3232.39 1338.2 3232.39 1338.2 4370.97 988.13 4370.97 988.13 4958.95 1341.6 4958.95 1341.6 5220.66 1749.45 5220.66 1749.45 5801.84 2578.74 5801.84 2578.74 5217.26 2004.35 5217.26 2004.35 4574.9 2568.54 4574.9 2568.54 4377.77 3020.58 4377.77 3020.58 4170.45"
                fill="#f90606" opacity="0" stroke="#000" stroke-miterlimit="10" />
            <polygon id="_05-2" data-name="05"
                points="3931.44 4377.77 2575.34 4377.77 2575.34 5798.44 3357.05 5798.44 3357.05 5951.39 4128.56 5951.39 4128.56 5642.1 4376.67 5642.1 4376.67 4826.4 3934.84 4826.4 3931.44 4377.77"
                fill="#f90606" opacity="0" stroke="#000" stroke-miterlimit="10" />
            <polygon id="_06" data-name="06"
                points="4832.1 4387.97 4832.1 4833.2 4386.87 4833.2 4386.87 5625.11 4634.98 5625.11 4634.98 5941.19 5409.89 5941.19 5409.89 5795.04 6256.18 5795.04 6256.18 5614.91 6191.6 5614.91 6191.6 4387.97 4832.1 4387.97"
                fill="#f90606" opacity="0" stroke="#000" stroke-miterlimit="10" />
        </g>
    </g>
</svg>