<svg id="Layer_1" data-name="Layer 1" xmlns="http://www.w3.org/2000/svg" width="16000" height="8192"
    viewBox="0 0 16000 8192">
    <g id="Root">
        <g id="A5">
            <polygon id="_01" data-name="01"
                points="11509.01 5801.2 11509.01 4383 12139.33 4383 12139.33 5026.44 12712.74 5026.44 12712.74 4383 13159.21 4383 13159.21 5617.36 12334.11 5617.36 12334.11 5801.2 11509.01 5801.2"
                fill="#f70303" opacity="0" stroke="#000" stroke-miterlimit="10" />
            <polygon id="_02" data-name="02"
                points="13942.72 4168.51 13942.72 3875.24 14734.99 3875.24 14734.99 3004.19 15522.88 3004.19 15522.88 5030.82 15181.46 5030.82 15181.46 5796.82 14402.33 5796.82 14402.33 5612.98 13141.7 5612.98 13141.7 5017.69 13719.49 5017.69 13719.49 4374.24 13945.17 4374.24 13942.72 4168.51"
                fill="#f70303" opacity="0" stroke="#000" stroke-miterlimit="10" />
            <polygon id="_03" data-name="03"
                points="12007.35 3676.66 13933.01 3676.66 13933.01 3878.62 14733.92 3878.62 14733.92 2750.39 14430.96 2750.39 14430.96 2409.13 13633.54 2409.13 13633.54 2088.77 12853.53 2088.77 12853.53 2060.91 12007.35 2060.91 12007.35 3676.66"
                fill="#f70303" opacity="0" stroke="#000" stroke-miterlimit="10" />
            <polygon id="_04" data-name="04"
                points="12007.35 3673.17 12007.35 2064.39 11161.18 2064.39 11161.18 2092.25 10377.68 2092.25 10377.68 2416.1 9580.26 2416.1 9580.26 2746.91 9294.72 2746.91 9294.72 3871.66 10081.69 3871.66 10081.69 3669.69 12007.35 3673.17"
                fill="#f70303" opacity="0" stroke="#000" stroke-miterlimit="10" />
            <polygon id="_05" data-name="05"
                points="10078.21 4376.58 10078.21 3868.18 9294.72 3868.18 9294.72 2969.77 8507.74 2969.77 8507.74 5031.23 8838.55 5031.23 8838.55 5797.32 10409.02 5797.32 10409.02 5616.24 10778.13 5616.24 10778.13 5020.78 10210.53 5020.78 10210.53 4374.95 10078.21 4376.58"
                fill="#f70303" opacity="0" stroke="#000" stroke-miterlimit="10" />
        </g>
        <g id="A6">
            <polygon id="_01-2" data-name="01"
                points="6900.26 4383 6900.26 3871.66 7690.99 3871.66 7690.99 2969.77 8476.89 2968.03 8476.89 5031.95 8139.39 5031.95 8139.39 5797.32 6553.11 5797.32 6553.11 5620.18 6201.14 5620.18 6201.14 5022.31 6770.08 5022.31 6770.08 4383.54 6900.26 4383"
                fill="#f70303" opacity="0" stroke="#000" stroke-miterlimit="10" />
            <polygon id="_02-2" data-name="02"
                points="4966.83 3667.46 4966.83 2375.3 5805.78 2375.3 5805.78 2418.69 7392.05 2418.69 7392.05 2751.38 7686.16 2751.38 7686.16 3871.66 6905.08 3871.66 6905.08 3681.93 4966.83 3667.46"
                fill="#f70303" opacity="0" stroke="#000" stroke-miterlimit="10" />
            <polygon id="_03-2" data-name="03"
                points="4966.83 3672.28 4966.83 2384.94 4127.89 2384.94 4127.89 2428.34 2536.79 2413.87 2536.79 2746.55 2242.68 2746.55 2242.68 3871.66 3033.41 3871.66 3033.41 3667.46 4966.83 3672.28"
                fill="#f70303" opacity="0" stroke="#000" stroke-miterlimit="10" />
            <polygon id="_04-2" data-name="04"
                points="3038.23 4197.83 3038.23 3871.66 2252.32 3871.66 2252.32 3247.99 1360.34 3247.99 1360.34 4383.54 1008.37 4383.54 1008.37 4945.16 1350.7 4945.16 1350.7 5234.45 1784.64 5234.45 1784.64 5797.32 2599.47 5797.32 2599.47 5224.81 2023.3 5224.81 2023.3 4578.73 2580.18 4578.73 2580.18 4383.54 3038.23 4383.54 3038.23 4197.83"
                fill="#f70303" opacity="0" stroke="#000" stroke-miterlimit="10" />
            <polygon id="_05-2" data-name="05"
                points="3033.41 4383.54 3949.49 4383.54 3949.49 4819.8 4393.07 4819.8 4393.07 5649.1 4152 5649.1 4152 5943.22 3366.09 5943.22 3366.09 5797.32 2589.83 5797.32 2589.83 4383.54 3033.41 4383.54"
                fill="#f70303" opacity="0" stroke="#000" stroke-miterlimit="10" />
            <polygon id="_06" data-name="06"
                points="4841.47 4383.54 5420.06 4383.54 5420.06 5933.57 4638.97 5933.57 4638.97 5629.82 4388.25 5629.82 4388.25 4829.45 4851.12 4829.45 4841.47 4383.54"
                fill="#f70303" opacity="0" stroke="#000" stroke-miterlimit="10" />
        </g>
    </g>
</svg>