<svg id="Layer_1" data-name="Layer 1" xmlns="http://www.w3.org/2000/svg" width="16000" height="8192"
    viewBox="0 0 16000 8192">
    <g id="Root">
        <g id="C13">
            <polygon id="_01" data-name="01"
                points="3825.24 3771.2 3825.24 4809.27 4413.1 4809.27 4414.36 4697.59 5605.41 4697.59 5605.41 4450.86 5905.01 4450.86 5905.01 3544.05 5317.02 3544.05 5317.02 3848.45 4658.54 3848.45 4658.54 3773.15 3825.24 3771.2"
                fill="#f90606" opacity="0" stroke="#000" stroke-miterlimit="10" />
            <polygon id="_02" data-name="02"
                points="4389.38 3414.27 4389.38 3371.01 4664.95 3371.01 4664.95 3236.43 5315.42 3236.43 5315.42 3542.44 5903.41 3542.44 5903.41 2637.24 5605.41 2637.24 5605.41 2382.49 4427.84 2382.49 4427.84 2268.74 3839.85 2268.74 3839.85 3417.48 4389.38 3414.27"
                fill="#f90606" opacity="0" stroke="#000" stroke-miterlimit="10" />
            <polygon id="_03" data-name="03"
                points="2367.74 3417.62 2634.65 3417.62 2634.65 3120.51 3284.85 3119.45 3284.85 3417.62 3832.36 3417.62 3832.36 2533.85 3550.48 2533.03 3552.93 2284.39 2961.18 2284.39 2960.77 2169.06 2367.74 2167.84 2367.74 3417.62"
                fill="#f90606" opacity="0" stroke="#000" stroke-miterlimit="10" />
            <polygon id="_04" data-name="04"
                points="2092.8 3496.66 2092.8 3419.66 2364.88 3419.66 2364.88 2372.41 1719.76 2372.41 1719.76 2273.16 1131.11 2273.16 1131.11 2233.8 535.62 2233.8 535.62 2829.3 296.05 2829.3 296.05 3590.78 905.23 3590.78 905.23 3354.63 1538.38 3354.63 1538.38 3498.37 2092.8 3496.66"
                fill="#f90606" opacity="0" stroke="#000" stroke-miterlimit="10" />
            <polygon id="_05" data-name="05"
                points="2090.8 3690.45 2090.8 3767.45 2362.88 3767.45 2362.88 4814.7 1717.76 4814.7 1717.76 4913.95 1129.11 4913.95 1129.11 4953.31 533.62 4953.31 533.62 4357.81 294.05 4357.81 294.05 3596.33 903.23 3596.33 903.23 3832.48 1536.38 3832.48 1536.38 3688.74 2090.8 3690.45"
                fill="#f90606" opacity="0" stroke="#000" stroke-miterlimit="10" />
            <polygon id="_06" data-name="06"
                points="2367.74 3771.2 2634.65 3771.2 2633.59 4073.01 3286.97 4074.07 3284.85 3771.2 3832.36 3771.2 3832.36 4654.97 3550.48 4655.79 3552.93 4904.43 2961.18 4904.43 2960.77 5019.76 2367.74 5020.98 2367.74 3771.2"
                fill="#f90606" opacity="0" stroke="#000" stroke-miterlimit="10" />
        </g>
        <g id="C15">
            <polygon id="_06-2" data-name="06"
                points="12125.02 3777.96 12125.02 4816.78 11546.84 4812.37 11546.84 4697.59 10359.46 4697.59 10359.46 4450.86 10059.86 4450.86 10059.86 3544.05 10647.85 3544.05 10647.85 3848.45 11306.33 3848.45 11306.33 3773.15 12125.02 3777.96"
                fill="#f90606" opacity="0" stroke="#000" stroke-miterlimit="10" />
            <polygon id="_05-2" data-name="05"
                points="11575.49 3414.27 11575.49 3371.01 11299.92 3371.01 11299.92 3236.43 10649.45 3236.43 10649.45 3542.44 10061.47 3542.44 10061.47 2637.24 10359.46 2637.24 10359.46 2382.49 11537.04 2382.49 11537.04 2268.74 12125.02 2268.74 12125.02 3417.48 11575.49 3414.27"
                fill="#f90606" opacity="0" stroke="#000" stroke-miterlimit="10" />
            <polygon id="_04-2" data-name="04"
                points="13597.13 3417.62 13330.23 3417.62 13330.23 3120.51 12680.02 3119.45 12680.02 3417.62 12132.52 3417.62 12132.52 2533.85 12414.39 2533.03 12411.94 2284.39 13003.69 2284.39 13004.1 2169.06 13597.13 2167.84 13597.13 3417.62"
                fill="#f90606" opacity="0" stroke="#000" stroke-miterlimit="10" />
            <polygon id="_03-2" data-name="03"
                points="13872.07 3496.66 13872.07 3419.66 13599.99 3419.66 13599.99 2372.41 14245.11 2372.41 14245.11 2273.16 14833.76 2273.16 14833.76 2233.8 15429.25 2233.8 15429.25 2829.3 15668.82 2829.3 15668.82 3590.78 15059.64 3590.78 15059.64 3354.63 14426.5 3354.63 14426.5 3498.37 13872.07 3496.66"
                fill="#f90606" opacity="0" stroke="#000" stroke-miterlimit="10" />
            <polygon id="_02-2" data-name="02"
                points="13874.07 3690.45 13874.07 3767.45 13601.99 3767.45 13601.99 4814.7 14247.11 4814.7 14247.11 4913.95 14835.76 4913.95 14835.76 4953.31 15431.25 4953.31 15431.25 4357.81 15670.82 4357.81 15670.82 3596.33 15061.64 3596.33 15061.64 3832.48 14428.5 3832.48 14428.5 3688.74 13874.07 3690.45"
                fill="#f90606" opacity="0" stroke="#000" stroke-miterlimit="10" />
            <polygon id="_01-2" data-name="01"
                points="13597.13 3771.2 13330.23 3771.2 13331.29 4073.01 12677.9 4074.07 12680.02 3771.2 12132.52 3771.2 12132.52 4654.97 12414.39 4655.79 12411.94 4904.43 13003.69 4904.43 13004.1 5019.76 13597.13 5020.98 13597.13 3771.2"
                fill="#f90606" opacity="0" stroke="#000" stroke-miterlimit="10" />
        </g>
        <g id="C14">
            <polyline id="_01-3" data-name="01"
                points="7986.95 3775.31 7986.95 4810.88 8578.71 4810.88 8578.71 4707.33 9759.26 4707.33 9759.26 4452.87 10049.22 4452.87 10049.22 3544.53 9466.34 3544.53 9466.34 3846.32 8812.45 3846.32 8812.45 3777.02"
                fill="#f90606" opacity="0" stroke="#000" stroke-miterlimit="10" />
            <polyline id="_04-3" data-name="04"
                points="7979.11 3774.81 7979.11 4809.27 7390.51 4809.27 7390.51 4700.08 6213.69 4707.33 6213.69 4452.87 5923.73 4452.87 5923.73 3544.53 6506.61 3544.53 6506.61 3846.32 7160.5 3846.32 7160.5 3777.02"
                fill="#f90606" opacity="0" stroke="#000" stroke-miterlimit="10" />
            <polyline id="_03-3" data-name="03"
                points="7165.5 3310.28 7979.11 3312.67 7979.11 2271.59 7398.75 2268.7 7399.24 2379.97 6218.69 2379.97 6218.69 2634.43 5928.73 2634.43 5928.73 3542.77 6511.61 3542.77 6511.61 3240.98 7165.5 3240.98 7165.5 3310.28"
                fill="#f90606" opacity="0" stroke="#000" stroke-miterlimit="10" />
            <polyline id="_02-3" data-name="02"
                points="8806.51 3310.28 7992.9 3312.67 7992.9 2271.59 8573.26 2268.7 8572.77 2379.97 9753.32 2379.97 9753.32 2634.43 10043.28 2634.43 10043.28 3542.77 9460.4 3542.77 9460.4 3240.98 8806.51 3240.98 8806.51 3310.28"
                fill="#f90606" opacity="0" stroke="#000" stroke-miterlimit="10" />
        </g>
    </g>
</svg>