<svg id="Layer_1" data-name="Layer 1" xmlns="http://www.w3.org/2000/svg" xmlns:xlink="http://www.w3.org/1999/xlink"
    width="1920" height="1080" viewBox="0 0 1920 1080" preserveAspectRatio="none">
    <g id="Root">
        <image id="Main" width="1920" height="1080" xlink:href="https://res.cloudinary.com/dfyfyxdph/image/upload/v1772511756/Type_C_-_Back_qhbk23.webp"/>
        <g id="B-Odd-2" opacity="1">
            <polygon id="F-04"
                points="740.88 536 740.88 597.81 711.35 597.81 700.76 588.38 694.78 588.15 692.02 585.85 569.41 587.46 563.2 584.01 494.64 584.01 504.07 590.91 478.54 590.91 463.35 586.08 396.41 583.43 389.05 580.79 325.56 581.94 305.77 586.08 273.34 586.08 177.87 581.94 82.15 581.94 79.27 581.29 79.27 570.11 99.17 570.11 99.17 560.25 131.38 560.25 131.38 540 176.85 540 288.06 537.52 523.38 537.52 531.72 542.45 566.58 532.4 700.72 531.08 712.65 536 740.88 536"
                fill="#617866" stroke="#000" stroke-miterlimit="10" />
            <polygon id="F-03"
                points="740.88 597.81 740.88 652.79 712.27 652.79 707.89 649.8 700.53 647.27 652.68 645.66 506.6 645.66 506.6 652.1 487.97 652.1 463.12 644.28 395.72 644.28 389.05 640.83 326.25 640.83 306 645.2 274.03 645.2 177.41 641.98 105.11 641.98 103.34 641.72 103.72 629.41 112.62 629.41 112.62 619.94 130.43 619.94 130.43 592.84 82.15 581.94 177.87 581.94 273.34 586.08 305.77 586.08 325.56 581.94 389.05 580.79 396.41 583.43 463.35 586.08 478.54 590.91 504.07 590.91 494.64 584.01 563.2 584.01 569.41 587.46 692.02 585.85 694.78 588.15 700.76 588.38 711.35 597.81 740.88 597.81"
                fill="#617866" stroke="#000" stroke-miterlimit="10" />
            <polygon id="F-02"
                points="740.88 652.79 740.88 708.92 713.19 708.92 701.22 704.32 566.65 705.01 516.96 705.01 518.34 709.84 487.51 709.84 464.04 704.78 397.1 703.17 389.28 701.56 273.34 703.86 177.41 701.56 109.55 701.56 102.77 700.65 102.77 689.66 113 689.66 113 680.19 130.43 680.19 130.43 645.7 105.11 641.98 177.41 641.98 274.03 645.2 306 645.2 326.25 640.83 389.05 640.83 395.72 644.28 463.12 644.28 487.97 652.1 506.6 652.1 506.6 645.66 652.68 645.66 700.53 647.27 707.89 649.8 712.27 652.79 740.88 652.79"
                fill="#617866" stroke="#000" stroke-miterlimit="10" />
            <polygon id="F-01"
                points="740.88 708.92 740.88 764.59 707.89 764.59 680.29 761.83 94.42 761.83 78.52 761.09 78.52 749.53 113 749.53 113 739.49 131 739.49 131 704.44 109.55 701.56 177.41 701.56 273.34 703.86 389.28 701.56 397.1 703.17 464.04 704.78 487.51 709.84 518.34 709.84 516.96 705.01 566.65 705.01 701.22 704.32 713.19 708.92 740.88 708.92"
                fill="#617866" stroke="#000" stroke-miterlimit="10" />
            <polygon id="F-00"
                points="740.88 764.59 740.88 819.47 131.38 819.47 131.38 763.55 94.42 761.83 680.29 761.83 707.89 764.59 740.88 764.59"
                fill="#617866" stroke="#000" stroke-miterlimit="10" />
        </g>
        <g id="B-Even" opacity="1">
            <polygon id="F-04-2" data-name="F-04"
                points="1190.35 536 1190.35 593.47 1164.08 593.67 1164.08 589.3 1078.5 589.3 878.13 588.15 767.25 588.15 767.25 597.81 740.88 597.81 740.88 536 902.12 536 902.12 538.85 1030.39 538.85 1030.39 536 1190.35 536"
                fill="#dd6a3d" stroke="#000" stroke-miterlimit="10" />
            <polygon id="F-00-2" data-name="F-00"
                points="1190.35 762.75 1190.35 819.47 740.88 819.47 740.88 764.59 1036.63 764.59 1036.63 762.75 1190.35 762.75"
                fill="#dd6a3d" stroke="#000" stroke-miterlimit="10" />
            <polygon id="F-01-2" data-name="F-01"
                points="1190.35 706.62 1190.35 762.75 1036.63 762.75 1036.63 764.59 740.88 764.59 740.88 708.92 768.4 708.92 768.4 705.7 911.49 704.9 1022.37 704.9 1163.85 706.62 1190.35 706.62"
                fill="#dd6a3d" stroke="#000" stroke-miterlimit="10" />
            <polygon id="F-03-2" data-name="F-03"
                points="1190.35 593.47 1190.35 653.48 1163.85 653.48 1163.85 647.04 1052.97 647.04 1021.68 647.5 911.49 647.27 878.59 646.35 767.94 646.35 767.94 652.79 740.88 652.79 740.88 597.81 767.25 597.81 767.25 588.15 878.13 588.15 1078.5 589.3 1164.08 589.3 1164.08 593.67 1190.35 593.47"
                fill="#dd6a3d" stroke="#000" stroke-miterlimit="10" />
            <polygon id="F-02-2" data-name="F-02"
                points="1190.35 653.48 1190.35 706.62 1163.85 706.62 1022.37 704.9 911.49 704.9 768.4 705.7 768.4 708.92 740.88 708.92 740.88 652.79 767.94 652.79 767.94 646.35 878.59 646.35 911.49 647.27 1021.68 647.5 1052.97 647.04 1163.85 647.04 1163.85 653.48 1190.35 653.48"
                fill="#dd6a3d" stroke="#000" stroke-miterlimit="10" />
        </g>
        <g id="B-Odd" opacity="1">
            <polygon id="F-04-3" data-name="F-04"
                points="1842.33 572.9 1842.33 583.89 1841.96 583.97 1743.8 584.7 1739.43 587 1621.87 588.15 1621.87 582.63 1588.97 583.09 1538.59 583.55 1530.31 586.31 1466.13 586.31 1450.49 592.29 1426.33 592.52 1425.87 590.22 1437.14 585.62 1366.29 585.39 1363.76 587.23 1363.76 593.21 1224.12 593.21 1190.35 593.47 1190.35 536 1363.65 536 1399.84 543.96 1407.42 539.22 1587.98 539.03 1725.72 534.49 1740.12 533.73 1740.12 539.03 1790.71 540 1790.87 562.38 1809.51 562.38 1809.51 573.21 1842.33 572.9"
                fill="#617866" stroke="#000" stroke-miterlimit="10" />
            <polygon id="F-03-3" data-name="F-03"
                points="1842.33 632 1842.33 638.85 1807.92 656.7 1794.12 658.54 1746.79 658.54 1652.47 646.58 1621.41 646.58 1602.32 643.13 1540.89 643.13 1530.31 645.43 1465.67 645.43 1440.13 652.33 1426.33 652.56 1426.33 648.19 1230.79 648.19 1230.79 645.89 1217.68 653.48 1190.35 653.48 1190.35 593.47 1224.12 593.21 1363.76 593.21 1363.76 587.23 1366.29 585.39 1437.14 585.62 1425.87 590.22 1426.33 592.52 1450.49 592.29 1466.13 586.31 1530.31 586.31 1538.59 583.55 1588.97 583.09 1621.87 582.63 1621.87 588.15 1739.43 587 1743.8 584.7 1841.96 583.97 1791.03 595.2 1791.03 623.56 1823.37 623.56 1823.37 632.64 1842.33 632"
                fill="#617866" stroke="#000" stroke-miterlimit="10" />
            <polygon id="F-02-3" data-name="F-02"
                points="1819.55 690.95 1819.55 703.86 1811.15 704.09 1747.25 704.09 1652.01 705.7 1451.41 706.62 1425.87 706.62 1425.87 703.17 1365.83 703.17 1361 704.9 1223.43 706.62 1190.35 706.62 1190.35 653.48 1217.68 653.48 1230.79 645.89 1230.79 648.19 1426.33 648.19 1426.33 652.56 1440.13 652.33 1465.67 645.43 1530.31 645.43 1540.89 643.13 1602.32 643.13 1621.41 646.58 1652.47 646.58 1746.79 658.54 1794.12 658.54 1791.19 658.93 1790.55 681.23 1809.51 681.39 1809.51 691.27 1819.55 690.95"
                fill="#617866" stroke="#000" stroke-miterlimit="10" />
            <polygon id="F-01-3" data-name="F-01"
                points="1819.55 751.17 1819.55 762.17 1804.1 762.44 1803.97 762.44 1747.25 761.83 1652.47 762.75 1190.35 762.75 1190.35 706.62 1223.43 706.62 1361 704.9 1365.83 703.17 1425.87 703.17 1425.87 706.62 1451.41 706.62 1652.01 705.7 1747.25 704.09 1811.15 704.09 1790.71 704.65 1790.71 739.86 1809.67 739.86 1809.51 750.86 1819.55 751.17"
                fill="#617866" stroke="#000" stroke-miterlimit="10" />
            <polygon id="F-00-3" data-name="F-00"
                points="1803.97 762.44 1791.67 762.65 1791.67 819.47 1190.35 819.47 1190.35 762.75 1652.47 762.75 1747.25 761.83 1803.97 762.44"
                fill="#617866" stroke="#000" stroke-miterlimit="10" />
        </g>
    </g>
</svg>