<svg id="Layer_1" data-name="Layer 1" xmlns="http://www.w3.org/2000/svg" xmlns:xlink="http://www.w3.org/1999/xlink"
    width="1920" height="1080" viewBox="0 0 1920 1080" preserveAspectRatio="none">
    <g id="Root">
        <image id="Main" width="1920" height="1080" transform="translate(0 -0.06)" xlink:href="https://res.cloudinary.com/dfyfyxdph/image/upload/v1772506962/Type_B_-_Back_cdid2c.webp"/>
        <g id="B-Even" opacity="1">
            <polygon id="F-04"
                points="1718.06 521.59 1718.06 539.98 1714.64 541.43 1659.56 544.59 1538.06 544.59 1449.56 535.09 1437.56 544.59 1138.56 544.59 1143.06 539.84 1011.56 544.59 1007.56 570.59 964.89 570.59 964.89 494.82 1009.06 494.08 1012.56 448.58 1327.56 447.58 1337.56 435.58 1349.56 435.08 1349.56 461.58 1437.56 460.58 1493.06 466.08 1659.06 465.58 1659.06 521.59 1718.06 521.59"
                fill="#506554" />
            <polygon id="F-03"
                points="1659.06 635.09 1673.06 635.09 1673.06 648.59 1658.56 648.59 1624.56 642.09 1490.56 642.09 1450.56 635.09 1437.56 641.84 1010.56 641.84 1010.56 659.09 964.89 659.09 964.89 570.59 1007.56 570.59 1011.56 544.59 1143.06 539.84 1138.56 544.59 1437.56 544.59 1449.56 535.09 1538.06 544.59 1659.56 544.59 1714.64 541.43 1659.06 565.09 1659.06 635.09"
                fill="#506554" />
            <polygon id="F-02"
                points="1674.54 740.59 1658.56 740.59 1636.06 735.59 1493.06 738.09 1451.06 735.59 1436.06 738.09 1359.56 738.09 1332.56 735.59 1222.56 738.09 1013.06 738.09 1008.56 750.09 964.89 750.09 964.89 659.09 1010.56 659.09 1010.56 641.84 1437.56 641.84 1450.56 635.09 1490.56 642.09 1624.56 642.09 1658.56 648.59 1673.06 648.59 1673.06 650.59 1659.06 655.59 1659.06 727.09 1674.06 727.09 1674.54 740.59"
                fill="#506554" />
            <polygon id="F-01"
                points="1718.06 813.59 1718.06 833.59 1659.06 833.59 1659.06 834.59 1012.06 834.59 1008.06 839.09 964.89 839.09 964.89 750.09 1008.56 750.09 1013.06 738.09 1222.56 738.09 1332.56 735.59 1359.56 738.09 1436.06 738.09 1451.06 735.59 1493.06 738.09 1636.06 735.59 1658.56 740.59 1674.54 740.59 1674.56 741.09 1659.06 747.59 1659.06 813.59 1718.06 813.59"
                fill="#506554" />
            <polygon id="F-00"
                points="1659.06 834.59 1659.06 922.09 964.89 922.09 964.89 839.09 1008.06 839.09 1012.06 834.59 1659.06 834.59"
                fill="#506554" />
        </g>
        <g id="B-Odd" opacity="1">
            <polygon id="F-00-2" data-name="F-00"
                points="964.89 839.09 964.89 922.09 250.56 922.09 250.56 834.59 463.56 834.59 917.06 836.84 924.81 839.09 964.89 839.09"
                fill="#ec663a" />
            <polygon id="F-01-2" data-name="F-01"
                points="964.89 750.09 964.89 839.09 924.81 839.09 917.06 836.84 463.56 834.59 250.56 834.59 250.56 834.09 198.06 834.09 198.06 814.59 241.56 814.59 240.06 794.09 252.06 793.59 252.56 737.09 224.56 735.59 224.31 733.09 335.56 733.09 335.56 742.84 474.56 740.59 702.06 738.09 917.56 738.59 922.06 750.09 964.89 750.09"
                fill="#ec663a" />
            <polygon id="F-02-2" data-name="F-02"
                points="964.89 659.09 964.89 750.09 922.06 750.09 917.56 738.59 702.06 738.09 474.56 740.59 335.56 742.84 335.56 733.09 224.31 733.09 222.56 715.59 235.56 715.09 235.06 693.84 252.06 693.84 252.56 657.59 191.56 639.59 191.56 639.38 334.56 638.59 334.56 641.09 474.56 641.59 702.06 641.09 917.06 642.09 921.06 659.09 964.89 659.09"
                fill="#ec663a" />
            <polygon id="F-03-2" data-name="F-03"
                points="964.89 570.59 964.89 659.09 921.06 659.09 917.06 642.09 702.06 641.09 474.56 641.59 334.56 641.09 334.56 638.59 191.56 639.38 191.56 614.09 241.06 613.59 241.06 596.59 253.06 596.09 253.06 556.59 196.06 534.59 196.06 533 343.56 535.09 343.56 544.59 475.56 544.59 700.06 546.09 779.56 546.09 916.56 543.59 921.06 570.59 964.89 570.59"
                fill="#ec663a" />
            <polygon id="F-04-2" data-name="F-04"
                points="964.89 494.82 964.89 570.59 921.06 570.59 916.56 543.59 779.56 546.09 700.06 546.09 475.56 544.59 343.56 544.59 343.56 535.09 196.06 533 196.06 515.59 240.06 516.59 240.06 496.08 253.56 496.08 253.56 438.58 340.06 438.58 340.56 425.58 388.56 425.58 476.56 458.58 916.56 460.58 919.56 495.58 964.89 494.82"
                fill="#ec663a" />
        </g>
    </g>
</svg>