<svg id="Layer_1" data-name="Layer 1" xmlns="http://www.w3.org/2000/svg" xmlns:xlink="http://www.w3.org/1999/xlink"
    width="16000" height="8192" viewBox="0 0 16000 8192">
    <g id="Root">
        <g id="Buildings">
            <g id="A-Group">
                <polygon id="_11-12" data-name=" 11-12"
                    points="9266.35 1051.35 9367.08 1100.19 9431.18 1076.79 9543.1 1037.11 10034.55 1181.59 10374.93 1283.97 10360.89 1410.37 10686.72 1505.88 10603.63 1541.38 10470.43 2003.05 10229.68 2046.48 10103.54 2009.09 10006.22 2044.85 9819.41 1973.46 9724.18 2021.01 9596.5 2030.94 9509.68 1999.16 9527.55 1826.37 9287.23 1727.06 8798.63 1562.9 8629.8 1516.52 8594.05 1524.47 8550.35 1512.55 8522.55 1302.02 8506.29 1174.47 8557.68 1154.53 8514.43 1142.93 8539.87 1099.18 8610.08 1071.7 8699.61 1041.18 8659.93 1047.28 8660.48 1027.88 8752.52 999.46 8791.19 1014.73 8888.86 976.06 8953.98 956.73 9266.35 1051.35"
                    fill="#496391" stroke="#000" stroke-miterlimit="10" opacity="0.05" style="isolation:isolate" />
                <polygon id="_19-20" data-name=" 19-20"
                    points="11491.22 1776.05 11645.03 1688.53 11784.66 1733.45 12715.53 2006.64 12559.1 2090.62 12576.45 2099.92 12977.69 2221.35 13083.91 2223.11 13588.12 2365.82 13426.44 2851.11 13242.92 2911.45 13132.3 2866.19 12858.27 2780.72 12508.82 2666.33 12433.4 2670.1 12084.57 2563.96 11812.59 2712.09 11624.39 2715.74 11174.09 2614.88 11174.09 2380.51 10890.07 2265.31 10810.88 2239.77 10864.3 2112.28 10833.95 2049.14 10893.44 2000.58 10925.98 1984.31 10819.84 1945.54 10944.39 1941.61 10943.57 1890.37 10942.74 1884.59 10965.06 1862.27 11151.47 1764.05 11207.2 1771.36 11289.85 1741.61 11396.46 1778.8 11417.61 1766.54 11491.22 1776.05"
                    fill="#496391" stroke="#000" stroke-miterlimit="10" opacity="0.05" style="isolation:isolate" />
                <polygon id="_6-5" data-name=" 6-5"
                    points="2750.78 3002.19 2815.34 3062.13 3078.19 2984.9 3147.38 3026.14 3204.21 3075.55 3275.86 3117.56 3332.69 3137.32 3401.4 3186.74 3571.47 3118.99 4372.91 3619.14 4451.98 3903.28 4496.45 3942.82 4535.99 4068.83 4654.59 4160.25 4602.7 4320.86 4634.82 4436.99 4639.76 4563 4093.71 4857.03 3747.79 4973.16 3270.92 4627.24 2779.15 4234.37 2403.66 4034.24 2252.93 3839.04 2148.2 3511.8 1899.61 3305.34 2163.98 3213.92 2201.05 3171.92 2364.12 3115.09 2750.78 3002.19"
                    fill="#496391" stroke="#000" stroke-miterlimit="10" opacity="0.05" style="isolation:isolate" />
                <polygon id="_3-4" data-name=" 3-4"
                    points="4983.87 4545.57 4357.92 4831.28 4022.04 5031.94 4227.06 5193.33 4170.35 5243.49 4272.86 5509.58 4358.4 5572.81 4578.2 5804.01 4902.98 6062.96 5273.94 6281.66 5502.95 6464.86 5618.54 6587 5657.8 6643.7 6004.58 6955.59 6538.93 7247.85 6959.87 7149.7 7149.62 7031.93 7143.07 6943.28 7393.89 6781.11 7465.86 6085.36 7487.67 5904.34 7302.29 5773.48 7149.62 5681.88 7138.71 5662.25 6573.83 5308.92 6748.31 5210.78 6746.13 5186.79 5612 4484.5 5356.82 4606.64 5284.85 4558.65 5162.71 4617.54 5062.38 4549.93 4990.41 4584.83 4983.87 4545.57"
                    fill="#496391" stroke="#000" stroke-miterlimit="10" opacity="0.05" style="isolation:isolate" />
            </g>
            <g id="B-Group">
                <polygon id="_9-10" data-name=" 9-10"
                    points="7820.38 1068.64 7746.11 1035.46 7551.76 975.42 6742.76 1223.49 6736.44 1242.45 6866.01 1291.44 6859.69 1327.78 6320.88 1484.21 6420.42 1991.41 6641.64 2081.88 6931.62 2173.95 7203.73 2081.88 7523.5 1961.43 7501.65 1783.26 7898.89 1631.72 7986.28 1603.91 8143.19 1544.25 8347.76 1474.81 8384.47 1250.35 8294.4 1232.97 8292.82 1207.69 8191.69 1169.77 8224.88 1157.13 7891.48 1052.84 7820.38 1068.64"
                    fill="#637c51" stroke="#000" stroke-miterlimit="10" opacity="0.05" style="isolation:isolate" />
                <polygon id="_7-8" data-name=" 7-8"
                    points="5324.72 1802.88 5404.86 1837.48 5407.76 1821.02 5761.84 1986.84 5761.84 2023.26 5892.98 2081.55 5900.26 2205.4 5904.65 2227.4 5828.18 2256.59 5825.32 2352.7 5215.56 2581.51 5255.29 2769.8 4939.48 2888.97 4968.68 3064.37 4131.74 3360.13 4022.46 3296.38 3984.63 3318.95 3538.66 2985.8 3448.33 2573.18 3445.1 2454.92 3359.49 2391.17 3667.3 2301.93 3636.34 2174.43 4771.03 1835.66 4944.06 1917.62 5324.72 1802.88"
                    fill="#637c51" stroke="#000" stroke-miterlimit="10" opacity="0.05" style="isolation:isolate" />
                <polygon id="_1-2" data-name=" 1-2"
                    points="9895.39 3942.81 10096.2 4038.92 10136.48 4015.65 10824.75 4330.7 10820.27 4363.82 10989.43 4439.9 10984.07 4476.59 10856.08 4553.56 10914.25 4582.2 10910.67 4609.06 10808.64 4672.6 10782.68 4793.43 10754.94 4921.42 10743.3 4964.38 10811.33 4997.5 10804.17 5020.77 10636.8 5206.04 9679.12 5840.61 9211.02 6194.15 8681.17 6426.85 8031.38 6003.5 7890.86 5826.29 7825.52 5708.15 7812.99 5283.01 7766.45 5104 8076.13 4925.89 8081.5 4754.94 9303.21 4080.1 9530.58 4185.4 9559.72 4141.69 9895.39 3942.81"
                    fill="#637c51" stroke="#000" stroke-miterlimit="10" opacity="0.05" style="isolation:isolate" />
                <polygon id="_21-22" data-name=" 21-22"
                    points="12406.65 2677.47 12455.6 2694.32 12483.06 2669.66 13127.83 2881.57 13110.66 2924.64 13326.31 2998.29 13180.84 3106.34 13171.21 3135.23 13149.68 3146.56 13129.29 3161.29 13145.02 3245.06 13142.53 3268.98 12882.26 3722.33 12845.12 3772.53 12400.72 4070.18 11844.42 4497.38 11536.2 4500.01 10860.04 4183.19 10804.54 4026.24 10783.94 3990.61 10863.67 3431.55 11134.15 3273.76 11171.04 3218.44 11418.98 3085.24 11284.42 3038.15 11285.79 3013.53 12072.65 2572.97 12187.4 2609.85 12406.65 2677.47"
                    fill="#637c51" stroke="#000" stroke-miterlimit="10" opacity="0.05" style="isolation:isolate" />
            </g>
            <g id="C-Group">
                <polygon id="_13-14-15" data-name=" 13-14-15"
                    points="8624.99 1537.12 8520.56 1564.19 8327.9 1492.69 7523.5 1798.56 7737.07 1904.69 6627.73 2310.99 6544.31 2340.79 6263.37 2215.66 5233.44 2593.03 5268.68 2779.73 4953.39 2900.89 5203.65 3528.52 6047.77 3979.03 6399.32 3895.96 6425.15 3661.59 6742.93 3516.6 6721.09 3304.08 7361.24 3024.39 7780.89 2845.35 8075.66 2972.39 8506.29 2757.88 8919.47 2570.42 9126.05 2485.07 9130.32 2410.3 9017.1 2366.61 9017.1 2330.86 9275.31 2217.64 9441.12 2132.16 9501.73 1832.33 8624.99 1537.12"
                    fill="#bc4c18" stroke="#000" stroke-miterlimit="10" opacity="0.05" style="isolation:isolate" />
                <path id="_16-17-18" data-name=" 16-17-18"
                    d="M10123.41,2029l-99.31,35.75-194.65-71.51L9033,2350.72,9267.36,2458l-283.18,124.77-908.52,405.54L7767.8,2855.21,6723.25,3309.79l23.66,212.77-309.85,145,172.8,746.8,707.08,411.14,479.84-10.2,1493.31-870.6,232.29-119.41L10725.22,3175l107.25,31.78,23.83-9.93L11041,2911.45l121.16-527Z"
                    fill="#bc4c18" stroke="#000" stroke-miterlimit="10" opacity="0.05" style="isolation:isolate" />
            </g>
        </g>
        <g id="virtual">
            <circle cx="6207.07" cy="4350.48" r="150" fill="#fff" opacity="0.1" />
            <circle cx="7605.09" cy="5513.93" r="150" fill="#fff" opacity="0.1" />
            <circle cx="5118.68" cy="3759.37" r="150" fill="#fff" opacity="0.1" />
            <circle cx="3548.49" cy="5870.47" r="150" fill="#fff" opacity="0.1" />
            <circle cx="11348.78" cy="4832" r="150" fill="#fff" opacity="0.1" />
            <circle cx="11198.78" cy="2860.45" r="150" fill="#fff" opacity="0.1" />
            <circle cx="14004.2" cy="3728.88" r="150" fill="#fff" opacity="0.1" />
            <circle cx="10783.94" cy="1783.26" r="150" fill="#fff" opacity="0.1" />
            <circle cx="6113.37" cy="1976.78" r="150" fill="#fff" opacity="0.1" />
            <path d="M9078.42,1933.26a150,150,0,1,1,150,150" fill="#fff" opacity="0.1" />
            <image id="vr-1" transform="translate(4968.68 3609.37) scale(0.47)" xlink:href="https://res.cloudinary.com/dfyfyxdph/image/upload/v1765301614/360_l8klzg.webp" />
            <image id="vr-11" transform="translate(3398.49 5720.47) scale(0.47)" xlink:href="https://res.cloudinary.com/dfyfyxdph/image/upload/v1765301614/360_l8klzg.webp" />
            <image id="vr-8" transform="translate(6055.12 4198.83) scale(0.47)" xlink:href="https://res.cloudinary.com/dfyfyxdph/image/upload/v1765301614/360_l8klzg.webp" />
            <image id="vr-9" transform="translate(7456.23 5361.07) scale(0.47)" xlink:href="https://res.cloudinary.com/dfyfyxdph/image/upload/v1765301614/360_l8klzg.webp" />
            <image id="vr-7" transform="translate(11198.78 4679) scale(0.47)" xlink:href="https://res.cloudinary.com/dfyfyxdph/image/upload/v1765301614/360_l8klzg.webp" />
            <image id="vr-5" transform="translate(13850.06 3578.88) scale(0.47)" xlink:href="https://res.cloudinary.com/dfyfyxdph/image/upload/v1765301614/360_l8klzg.webp" />
            <image id="vr-2" transform="translate(11048.43 2692.64) scale(0.47)" xlink:href="https://res.cloudinary.com/dfyfyxdph/image/upload/v1765301614/360_l8klzg.webp" />
            <image id="vr-10" transform="translate(10633.94 1633.26) scale(0.47)" xlink:href="https://res.cloudinary.com/dfyfyxdph/image/upload/v1765301614/360_l8klzg.webp" />
            <image id="vr-12" transform="translate(5963.37 1830.6) scale(0.47)" xlink:href="https://res.cloudinary.com/dfyfyxdph/image/upload/v1765301614/360_l8klzg.webp" />
        </g>
    </g>
</svg>