<svg id="Layer_1" data-name="Layer 1" xmlns="http://www.w3.org/2000/svg" xmlns:xlink="http://www.w3.org/1999/xlink"
    width="1920" height="1080" viewBox="0 0 1920 1080" preserveAspectRatio="none">
    <g id="Root">
        <image id="Main" width="1920" height="1080" xlink:href="https://res.cloudinary.com/dfyfyxdph/image/upload/v1772502065/Type_A_-_Back_rlts4g.webp" />
        <g id="B-Odd" opacity="1">
            <polygon id="F-04"
                points="964.25 467.05 964.25 557.04 875.87 557.62 873.98 550.03 839.5 550.41 828.13 525.78 732.26 528.05 690.58 512.52 617.82 514.41 615.93 523.13 538.63 523.51 523.85 515.17 484.82 514.79 484.82 523.51 419.26 523.13 401.83 514.79 298.76 512.52 298.76 528.82 230.56 528.82 230.56 548.52 222.98 548.52 222.98 556.86 183.95 556.48 161.59 548.9 152.58 545.72 152.5 462.5 183.57 477.29 230.94 475 230.94 440.52 298.01 439.76 298.01 435.23 333.25 434.46 420.4 445.45 485.2 444.69 523.09 428.02 817.14 428.02 823.2 445.07 828.13 444.31 874.36 458.33 876.25 466.68 964.25 467.05"
                fill="#ec663a" />
            <polygon id="F-03"
                points="964.25 557.04 964.25 636.5 876.82 637.01 873.66 630.96 857.33 630.96 839.16 631.49 828.89 616.22 797.29 616.48 731.62 616.48 721.39 606.05 616.05 606.92 615.62 613.01 419.39 613.05 403.33 608.04 303 604.37 284.04 626.22 222.94 627.79 222.94 635.97 183.44 635.7 152.67 631.88 152.58 545.72 161.59 548.9 183.95 556.48 222.98 556.86 222.98 548.52 230.56 548.52 230.56 528.82 298.76 528.82 298.76 512.52 401.83 514.79 419.26 523.13 484.82 523.51 484.82 514.79 523.85 515.17 538.63 523.51 615.93 523.13 617.82 514.41 690.58 512.52 732.26 528.05 828.13 525.78 839.5 550.41 873.98 550.03 875.87 557.62 964.25 557.04"
                fill="#ec663a" />
            <polygon id="F-02"
                points="964.25 636.5 964.25 717.18 876.12 717.91 873.21 713.25 855.16 712.97 838.27 713.25 829.53 704.24 731.41 704.24 721.21 698.12 616.39 700.45 616.39 704.24 420.13 703.95 403.24 700.45 303.08 702.49 303.08 714.13 181.07 716.17 152.74 712.26 152.67 631.88 183.44 635.7 222.94 635.97 222.94 627.79 284.04 626.22 303 604.37 403.33 608.04 419.39 613.05 615.62 613.01 616.05 606.92 721.39 606.05 731.62 616.48 797.29 616.48 828.89 616.22 839.16 631.49 857.33 630.96 873.66 630.96 876.82 637.01 964.25 636.5"
                fill="#ec663a" />
            <polygon id="F-01"
                points="964.25 717.18 964.25 792.93 728.79 792.75 402.37 792.47 333.36 797.13 284.15 793.63 152.83 795.13 152.74 712.26 181.07 716.17 303.08 714.13 303.08 702.49 403.24 700.45 420.13 703.95 616.39 704.24 616.39 700.45 721.21 698.12 731.41 704.24 829.53 704.24 838.27 713.25 855.16 712.97 873.21 713.25 876.12 717.91 964.25 717.18"
                fill="#ec663a" />
            <polygon id="F-00"
                points="964.25 792.93 964.25 850.88 838.74 851.66 805.01 865.68 624.64 864.92 423.81 868.34 330.97 850.14 152.88 850.14 152.83 795.13 284.15 793.63 333.36 797.13 402.37 792.47 728.79 792.75 964.25 792.93"
                fill="#ec663a" />
        </g>
        <g id="B-Even" opacity="1">
            <polygon id="F-04-2" data-name="F-04"
                points="1766.36 468.56 1766.36 555.73 1758.4 555.73 1735.66 564.05 1700.42 564.05 1700.42 525.78 1543.93 527.68 1486.71 535.25 1417.36 534.88 1375.3 544.92 1300.27 544.92 1264.65 525.78 1194.93 527.3 1098.68 527.3 1089.21 549.27 1055.11 549.27 1052.83 556.48 964.25 557.04 964.25 467.05 1055.11 467.44 1089.97 467.06 1098.68 438.25 1296.11 438.25 1296.11 460.61 1485.19 460.61 1554.54 447.35 1700.8 447.35 1700.8 486 1727.33 486 1766.36 468.56"
                fill="#506554" />
            <polygon id="F-03-2" data-name="F-03"
                points="1766.36 555.73 1766.36 637.54 1755.58 637.54 1735.57 641.24 1700.81 641.24 1700.81 613.05 1686.06 613.05 1669.47 616.48 1554.65 615.42 1486.18 621.22 1418.24 621.22 1371.1 622.79 1299.48 622 1264.45 616.48 1129.62 616.22 1098.02 615.95 1088.8 630.7 1054.31 630.96 1052.73 635.97 964.25 636.5 964.25 557.04 1052.83 556.48 1055.11 549.27 1089.21 549.27 1098.68 527.3 1194.93 527.3 1264.65 525.78 1300.27 544.92 1375.3 544.92 1417.36 534.88 1486.71 535.25 1543.93 527.68 1700.42 525.78 1700.42 564.05 1735.66 564.05 1758.4 555.73 1766.36 555.73"
                fill="#506554" />
            <polygon id="F-02-2" data-name="F-02"
                points="1766.36 637.54 1766.36 717.91 1700.46 717.91 1551.67 712.38 1499.26 705.39 1485.28 708.61 1293.1 709.48 1129.74 707.14 1129.74 704.24 1098.59 704.24 1088.69 713.55 1054.04 713.55 1051.71 716.47 964.25 717.18 964.25 636.5 1052.73 635.97 1054.31 630.96 1088.8 630.7 1098.02 615.95 1129.62 616.22 1264.45 616.48 1299.48 622 1371.1 622.79 1418.24 621.22 1486.18 621.22 1554.65 615.42 1669.47 616.48 1686.06 613.05 1700.81 613.05 1700.81 641.24 1735.57 641.24 1755.58 637.54 1766.36 637.54"
                fill="#506554" />
            <polygon id="F-01-2" data-name="F-01"
                points="1766.36 717.91 1766.36 795.5 1754.04 796.83 1735.12 798.28 1700.46 798.28 1700.46 794.79 1595.64 794.79 1500.13 793.34 964.25 792.93 964.25 717.18 1051.71 716.47 1054.04 713.55 1088.69 713.55 1098.59 704.24 1129.74 704.24 1129.74 707.14 1293.1 709.48 1485.28 708.61 1499.26 705.39 1551.67 712.38 1700.46 717.91 1766.36 717.91"
                fill="#506554" />
            <polygon id="F-00-2" data-name="F-00"
                points="1766.36 795.5 1766.36 859.25 1485.57 871 1322.63 875.53 1265.79 854.7 1154.01 858.49 1082.01 850.14 964.25 850.88 964.25 792.93 1500.13 793.34 1595.64 794.79 1700.46 794.79 1700.46 798.28 1735.12 798.28 1754.04 796.83 1766.36 795.5"
                fill="#506554" />
        </g>
    </g>
</svg>