<svg id="Layer_1" data-name="Layer 1" xmlns="http://www.w3.org/2000/svg" xmlns:xlink="http://www.w3.org/1999/xlink"
    width="1920" height="1080" viewBox="0 0 1920 1080" preserveAspectRatio="none">
    <g id="Root">
        <image id="Main" width="1920" height="1080" transform="translate(0.36 -0.06)" xlink:href="https://res.cloudinary.com/dfyfyxdph/image/upload/v1772506960/Type_B_-_Front_l1o7wn.webp"/>
        <g id="B-Even" opacity="1">
            <polygon id="F-04"
                points="951.88 481.25 951.72 571.64 908.53 571.64 903.97 547.89 568.55 547.58 568.55 557.83 486.89 556.36 475.18 546.27 374.98 547.89 368.67 542.83 194.23 542.83 194.23 524.36 240.75 523.87 241.72 462.81 256.26 470.07 420.55 470.07 487.44 461.83 681.78 461.83 681.78 450.2 903.26 451.18 903.26 480.25 951.88 481.25"
                fill="#506554" />
            <polygon id="F-03"
                points="951.72 571.64 951.57 660.7 907.18 661.47 907.18 654.46 856.93 643.15 685.9 641.6 681.62 649.77 488.38 651.53 475.14 644.72 420.21 643.93 288.14 644.72 278.4 641.6 241.61 641.6 242.21 562.15 194.23 543.25 194.23 542.83 368.67 542.83 374.98 547.89 475.18 546.27 486.89 556.36 568.55 557.83 568.55 547.58 903.97 547.89 908.53 571.64 951.72 571.64"
                fill="#506554" />
            <polygon id="F-02"
                points="951.57 660.7 951.42 750.74 909.34 750.74 905.74 742.23 763.23 742.23 681.99 741.89 681.99 745.45 499.84 745.45 477.24 742.54 421.87 741.57 286.9 741.57 277.73 737.63 240.89 737.63 241.61 641.6 278.4 641.6 288.14 644.72 420.21 643.93 475.14 644.72 488.38 651.53 681.62 649.77 685.9 641.6 856.93 643.15 907.18 654.46 907.18 661.47 951.57 660.7"
                fill="#506554" />
            <polygon id="F-01"
                points="951.42 750.74 951.27 839.38 906.61 839.38 903.82 835.8 718.86 835.8 718.86 839.38 693.01 837.6 693.01 848.13 459.52 848.13 459.52 835.8 377.18 835.8 377.18 838.18 194.23 838.18 194.23 820.48 240.27 819.99 240.89 737.63 277.73 737.63 286.9 741.57 421.87 741.57 477.24 742.54 499.84 745.45 681.99 745.45 681.99 741.89 763.23 742.23 905.74 742.23 909.34 750.74 951.42 750.74"
                fill="#506554" />
            <polygon id="F-00"
                points="951.27 839.38 951.11 937.75 239.3 937.75 239.3 838.88 194.23 838.88 194.23 838.18 377.18 838.18 377.18 835.8 459.52 835.8 459.52 848.13 693.01 848.13 693.01 837.6 718.86 839.38 718.86 835.8 903.82 835.8 906.61 839.38 951.27 839.38"
                fill="#506554" />
        </g>
        <g id="B-Odd" opacity="1">
            <polygon id="F-04-2" data-name="F-04"
                points="1704.86 526.29 1704.86 543.74 1704.23 544 1545.43 544 1537.2 547.99 1424.51 548.23 1415.4 555.05 1220.2 555.05 999.62 557 999.62 563.18 997.34 571.64 951.72 571.64 951.88 481.25 973.53 481.7 997.77 493.33 997.77 460.87 1218.76 461.35 1218.28 467.17 1415.53 467.17 1506.64 442.94 1648.64 442.94 1648.64 465.23 1658.82 462.31 1666.58 457.48 1666.58 526.29 1704.86 526.29"
                fill="#ec663a" />
            <polygon id="F-03-2" data-name="F-03"
                points="1711.65 619.83 1711.65 643.15 1707 643.15 1651.68 661.47 1577.27 661.47 1535.19 643.15 1429.22 643.15 1421.04 649.38 1221.19 649 1213.79 643.15 1138.6 643.15 1138.6 645.5 1001.07 644.72 997.57 659.9 951.57 660.7 951.72 571.64 997.34 571.64 999.62 563.18 999.62 557 1179.88 555.41 1206.93 555.17 1220.2 555.05 1415.4 555.05 1424.51 548.23 1537.2 547.99 1545.43 544 1704.23 544 1666.09 559.74 1667.55 619.83 1711.65 619.83"
                fill="#ec663a" />
            <polygon id="F-02-2" data-name="F-02"
                points="1667.06 657.14 1667.06 722.09 1677.24 722.09 1677.72 740.01 1677.17 740.16 1667.73 740.16 1654.3 747.47 1648.4 747.47 1648.4 740.16 1413.51 740.16 1407.29 743.82 1220.56 743.82 1137.35 741.57 1001.39 741.57 998.12 750.74 951.42 750.74 951.57 660.7 997.57 659.9 1001.07 644.72 1138.6 645.5 1138.6 643.15 1213.79 643.15 1221.19 649 1421.04 649.38 1429.22 643.15 1535.19 643.15 1577.27 661.47 1651.68 661.47 1707 643.15 1711.65 643.15 1711.65 645.51 1667.06 657.14"
                fill="#ec663a" />
            <polygon id="F-01-2" data-name="F-01"
                points="1705.35 819.5 1704.86 837.78 1138.51 837.78 997.7 839.38 951.27 839.38 951.42 750.74 998.12 750.74 1001.39 741.57 1137.35 741.57 1220.56 743.82 1407.29 743.82 1413.51 740.16 1648.4 740.16 1648.4 747.47 1654.3 747.47 1667.73 740.16 1677.17 740.16 1667.06 742.92 1668.03 819.5 1705.35 819.5"
                fill="#ec663a" />
            <polygon id="F-00-2" data-name="F-00"
                points="1704.86 837.78 1704.86 837.91 1668.52 837.91 1665.61 937.75 951.11 937.75 951.27 839.38 997.7 839.38 1138.51 837.78 1704.86 837.78"
                fill="#ec663a" />
        </g>
    </g>
</svg>