<svg id="Layer_1" data-name="Layer 1" xmlns="http://www.w3.org/2000/svg" width="16000" height="8192"
    viewBox="0 0 16000 8192">
    <g id="Root">
        <g id="C16">
            <polygon id="_01" data-name="01"
                points="3818.24 3777.2 3818.24 4815.27 4406.1 4815.27 4407.36 4703.59 5598.41 4703.59 5598.41 4456.86 5898.01 4456.86 5898.01 3550.05 5310.02 3550.05 5310.02 3854.45 4651.54 3854.45 4651.54 3779.15 3818.24 3777.2"
                fill="#f90606" opacity="0" stroke="#000" stroke-miterlimit="10" />
            <polygon id="_02" data-name="02"
                points="4382.38 3420.27 4382.38 3377.01 4657.95 3377.01 4657.95 3242.43 5308.42 3242.43 5308.42 3548.44 5896.41 3548.44 5896.41 2643.24 5598.41 2643.24 5598.41 2388.49 4420.84 2388.49 4420.84 2274.74 3832.85 2274.74 3832.85 3423.48 4382.38 3420.27"
                fill="#f90606" opacity="0" stroke="#000" stroke-miterlimit="10" />
            <polygon id="_03" data-name="03"
                points="2360.74 3423.62 2627.65 3423.62 2627.65 3126.51 3277.85 3125.45 3277.85 3423.62 3825.36 3423.62 3825.36 2539.85 3543.48 2539.03 3545.93 2290.39 2954.18 2290.39 2953.77 2175.06 2360.74 2173.84 2360.74 3423.62"
                fill="#f90606" opacity="0" stroke="#000" stroke-miterlimit="10" />
            <polygon id="_04" data-name="04"
                points="2085.8 3502.66 2085.8 3425.66 2357.88 3425.66 2357.88 2378.41 1712.76 2378.41 1712.76 2279.16 1124.11 2279.16 1124.11 2239.8 528.62 2239.8 528.62 2835.3 289.05 2835.3 289.05 3596.78 898.23 3596.78 898.23 3360.63 1531.38 3360.63 1531.38 3504.37 2085.8 3502.66"
                fill="#f90606" opacity="0" stroke="#000" stroke-miterlimit="10" />
            <polygon id="_05" data-name="05"
                points="2083.8 3696.45 2083.8 3773.45 2355.88 3773.45 2355.88 4820.7 1710.76 4820.7 1710.76 4919.95 1122.11 4919.95 1122.11 4959.31 526.62 4959.31 526.62 4363.81 287.05 4363.81 287.05 3602.33 896.23 3602.33 896.23 3838.48 1529.38 3838.48 1529.38 3694.74 2083.8 3696.45"
                fill="#f90606" opacity="0" stroke="#000" stroke-miterlimit="10" />
            <polygon id="_06" data-name="06"
                points="2360.74 3777.2 2627.65 3777.2 2626.59 4079.01 3279.97 4080.07 3277.85 3777.2 3825.36 3777.2 3825.36 4660.97 3543.48 4661.79 3545.93 4910.43 2954.18 4910.43 2953.77 5025.76 2360.74 5026.98 2360.74 3777.2"
                fill="#f90606" opacity="0" stroke="#000" stroke-miterlimit="10" />
        </g>
        <g id="C18">
            <polygon id="_06-2" data-name="06"
                points="12140.02 3779.96 12140.02 4818.78 11561.84 4814.37 11561.84 4699.59 10374.46 4699.59 10374.46 4452.86 10074.86 4452.86 10074.86 3546.05 10662.85 3546.05 10662.85 3850.45 11321.33 3850.45 11321.33 3775.15 12140.02 3779.96"
                fill="#f90606" opacity="0" stroke="#000" stroke-miterlimit="10" />
            <polygon id="_05-2" data-name="05"
                points="11590.49 3416.27 11590.49 3373.01 11314.92 3373.01 11314.92 3238.43 10664.45 3238.43 10664.45 3544.44 10076.47 3544.44 10076.47 2639.24 10374.46 2639.24 10374.46 2384.49 11552.04 2384.49 11552.04 2270.74 12140.02 2270.74 12140.02 3419.48 11590.49 3416.27"
                fill="#f90606" opacity="0" stroke="#000" stroke-miterlimit="10" />
            <polygon id="_04-2" data-name="04"
                points="13612.13 3419.62 13345.23 3419.62 13345.23 3122.51 12695.02 3121.45 12695.02 3419.62 12147.52 3419.62 12147.52 2535.85 12429.39 2535.03 12426.94 2286.39 13018.69 2286.39 13019.1 2171.06 13612.13 2169.84 13612.13 3419.62"
                fill="#f90606" opacity="0" stroke="#000" stroke-miterlimit="10" />
            <polygon id="_03-2" data-name="03"
                points="13887.07 3498.66 13887.07 3421.66 13614.99 3421.66 13614.99 2374.41 14260.11 2374.41 14260.11 2275.16 14848.76 2275.16 14848.76 2235.8 15444.25 2235.8 15444.25 2831.3 15683.82 2831.3 15683.82 3592.78 15074.64 3592.78 15074.64 3356.63 14441.5 3356.63 14441.5 3500.37 13887.07 3498.66"
                fill="#f90606" opacity="0" stroke="#000" stroke-miterlimit="10" />
            <polygon id="_02-2" data-name="02"
                points="13889.07 3692.45 13889.07 3769.45 13616.99 3769.45 13616.99 4816.7 14262.11 4816.7 14262.11 4915.95 14850.76 4915.95 14850.76 4955.31 15446.25 4955.31 15446.25 4359.81 15685.82 4359.81 15685.82 3598.33 15076.64 3598.33 15076.64 3834.48 14443.5 3834.48 14443.5 3690.74 13889.07 3692.45"
                fill="#f90606" opacity="0" stroke="#000" stroke-miterlimit="10" />
            <polygon id="_01-2" data-name="01"
                points="13612.13 3773.2 13345.23 3773.2 13346.29 4075.01 12692.9 4076.07 12695.02 3773.2 12147.52 3773.2 12147.52 4656.97 12429.39 4657.79 12426.94 4906.43 13018.69 4906.43 13019.1 5021.76 13612.13 5022.98 13612.13 3773.2"
                fill="#f90606" opacity="0" stroke="#000" stroke-miterlimit="10" />
        </g>
        <g id="C17">
            <polyline id="_01-3" data-name="01"
                points="7983.95 3777.31 7983.95 4812.88 8575.71 4812.88 8575.71 4709.33 9756.26 4709.33 9756.26 4454.87 10046.22 4454.87 10046.22 3546.53 9463.34 3546.53 9463.34 3848.32 8809.45 3848.32 8809.45 3779.02"
                fill="#f90606" opacity="0" stroke="#000" stroke-miterlimit="10" />
            <polyline id="_04-3" data-name="04"
                points="7976.11 3776.81 7976.11 4811.27 7387.51 4811.27 7387.51 4702.08 6210.69 4709.33 6210.69 4454.87 5920.73 4454.87 5920.73 3546.53 6503.61 3546.53 6503.61 3848.32 7157.5 3848.32 7157.5 3779.02"
                fill="#f90606" opacity="0" stroke="#000" stroke-miterlimit="10" />
            <polyline id="_03-3" data-name="03"
                points="7162.5 3312.28 7976.11 3314.67 7976.11 2273.59 7395.75 2270.7 7396.24 2381.97 6215.69 2381.97 6215.69 2636.43 5925.73 2636.43 5925.73 3544.77 6508.61 3544.77 6508.61 3242.98 7162.5 3242.98 7162.5 3312.28"
                fill="#f90606" opacity="0" stroke="#000" stroke-miterlimit="10" />
            <polyline id="_02-3" data-name="02"
                points="8803.51 3312.28 7989.9 3314.67 7989.9 2273.59 8570.26 2270.7 8569.77 2381.97 9750.32 2381.97 9750.32 2636.43 10040.28 2636.43 10040.28 3544.77 9457.4 3544.77 9457.4 3242.98 8803.51 3242.98 8803.51 3312.28"
                fill="#f90606" opacity="0" stroke="#000" stroke-miterlimit="10" />
        </g>
    </g>
</svg>