<svg id="Layer_1" data-name="Layer 1" xmlns="http://www.w3.org/2000/svg" xmlns:xlink="http://www.w3.org/1999/xlink"
    width="1920" height="1080" viewBox="0 0 1920 1080" preserveAspectRatio="none">
    <g id="Root">
        <image id="Main" width="1920" height="1080" xlink:href="https://res.cloudinary.com/dfyfyxdph/image/upload/v1772502064/Type_A_-_Front_tphy5u.webp"/>
        <g id="B-Even" opacity="1">
            <polygon id="F-04"
                points="957.39 477.81 957.39 545.05 922.67 545.05 918.36 527.25 830.2 527.25 826.18 521.23 731.7 521.23 679.15 543.62 609.36 543.34 596.73 533.13 533.55 533.13 496.5 526.67 465.49 526.38 395.7 513.17 352.05 513.17 352.05 529.12 289.45 529.12 273.66 521.5 163.04 521.5 163.04 518.43 153.98 518.43 153.98 503.62 163.59 503.33 163.04 447.61 395.29 447.61 481.22 465.73 501.81 465.73 501.81 431.42 594.32 431.42 609.14 446.24 731.86 446.24 731.86 438.82 826.02 438.82 828.76 446.51 918.81 445.96 921.28 469.3 921.28 477.81 957.39 477.81"
                fill="#506554" />
            <polygon id="F-03"
                points="957.39 545.05 957.39 620.87 922.38 620.87 918.94 608.8 608.79 608.8 597.3 601.91 496.79 608.8 468.36 608.8 394.29 601.75 352.63 601.91 352.63 608.8 289.16 609.38 274.52 605.64 163.04 605.64 163.04 521.5 273.66 521.5 289.45 529.12 352.05 529.12 352.05 513.17 395.7 513.17 465.49 526.38 496.5 526.67 533.55 533.13 596.73 533.13 609.36 543.34 679.15 543.62 731.7 521.23 826.18 521.23 830.2 527.25 918.36 527.25 922.67 545.05 957.39 545.05"
                fill="#506554" />
            <polygon id="F-02"
                points="957.39 620.87 957.39 697.25 923.53 697.25 918.94 690.65 829.63 690.65 826.75 688.36 798.9 688.36 680.01 690.37 609.08 691.23 597.01 686.63 437.63 685.2 395.7 686.92 351.19 686.63 351.19 691.23 288.3 691.23 273.08 688.93 246.95 688.07 175.44 688.58 175.4 662.57 163.04 659 163.04 605.64 274.52 605.64 289.16 609.38 352.63 608.8 352.63 601.91 394.29 601.75 468.36 608.8 496.79 608.8 597.3 601.91 608.79 608.8 918.94 608.8 922.38 620.87 957.39 620.87"
                fill="#506554" />
            <polygon id="F-01"
                points="957.39 697.25 957.39 773.08 926.4 773.08 923.24 771.07 825.03 772.07 729.69 771.07 701.26 772.07 701.26 780.25 571.17 780.25 571.17 777.1 572.89 775.65 573.18 771.07 497.65 771.07 350.62 772.5 288.88 772.78 274.52 772.5 175.57 771.1 175.44 688.58 246.95 688.07 273.08 688.93 288.3 691.23 351.19 691.23 351.19 686.63 395.7 686.92 437.63 685.2 597.01 686.63 609.08 691.23 680.01 690.37 798.9 688.36 826.75 688.36 829.63 690.65 918.94 690.65 923.53 697.25 957.39 697.25"
                fill="#506554" />
            <polygon id="F-00"
                points="957.39 773.08 957.39 827.54 623.42 827.54 595.97 851.43 500.16 851.43 413.68 834.97 175.67 834.97 175.57 771.1 274.52 772.5 288.88 772.78 350.62 772.5 497.65 771.07 573.18 771.07 572.89 775.65 571.17 777.1 571.17 780.25 701.26 780.25 701.26 772.07 729.69 771.07 825.03 772.07 923.24 771.07 926.4 773.08 957.39 773.08"
                fill="#506554" />
        </g>
        <g id="B-Odd" opacity="1">
            <polygon id="F-04-2" data-name="F-04"
                points="1784.65 501.14 1784.65 516.51 1725.71 535.4 1720.09 535.4 1720.09 526.16 1646.41 527.08 1646.41 520.53 1541.42 520.53 1450.84 523.47 1409.38 523.47 1409.38 521.43 1336.61 521.43 1302.81 526.39 1216.07 526.63 1216.07 521.43 1086.74 521.43 1085.16 527.75 994.58 527.75 993.23 545.54 957.39 545.54 957.39 477.81 993.75 477.81 993.75 458.6 1084.62 458.87 1087.09 451.18 1181.8 451.18 1181.8 458.87 1299.57 458.6 1336.36 447.33 1366.83 447.06 1415.14 454.62 1450.28 454.62 1524.4 443.76 1528.25 444.31 1539.78 436.9 1645.74 436.63 1645.74 444.87 1720.41 444.6 1720.41 489.06 1739.63 489.06 1739.63 501.14 1784.65 501.14"
                fill="#f15a24" />
            <polygon id="F-03-2" data-name="F-03"
                points="1793.99 575.26 1793.99 576.18 1554.26 576.18 1540.74 581.14 1451.07 605.71 1409.61 606.38 1409.61 604.36 1337.06 604.36 1299.88 609.53 1215.84 608.86 1215.84 604.36 1086.96 604.36 1084.26 609.09 995.03 609.09 994.13 621.71 957.39 621.71 957.39 545.54 993.23 545.54 994.58 527.75 1085.16 527.75 1086.74 521.43 1216.07 521.43 1216.07 526.63 1302.81 526.39 1336.61 521.43 1409.38 521.43 1409.38 523.47 1450.84 523.47 1541.42 520.53 1646.41 520.53 1646.41 527.08 1720.09 526.16 1720.09 535.4 1725.71 535.4 1720.41 537.11 1720.69 571.7 1738.81 571.7 1738.53 575.26 1793.99 575.26"
                fill="#f15a24" />
            <polygon id="F-02-2" data-name="F-02"
                points="1720.41 622.75 1720.41 656.52 1739.63 656.52 1739.36 670.25 1752.81 670.25 1752.82 670.61 1576.79 670.83 1450.62 688.39 1410.06 688.16 1336.61 687.26 1303.49 690.42 1216.52 690.42 1216.52 685.91 1096.42 685.91 1096.42 669.47 957.39 669.47 957.39 621.71 994.13 621.71 995.03 609.09 1084.26 609.09 1086.96 604.36 1215.84 604.36 1215.84 608.86 1299.88 609.53 1337.06 604.36 1409.61 604.36 1409.61 606.38 1451.07 605.71 1540.74 581.14 1554.26 576.18 1793.99 576.18 1793.99 596.67 1720.41 622.75"
                fill="#f15a24" />
            <polygon id="F-01-2" data-name="F-01"
                points="1720.41 741.63 1738.81 741.63 1739.39 754.96 1784.38 755.09 1783.74 769.52 994.36 771.07 993.88 773.8 957.39 773.08 957.39 697.25 993.79 697.25 995.2 691.52 1086.1 690.42 1096.42 685.91 1216.52 685.91 1216.52 690.42 1303.49 690.42 1336.61 687.26 1410.06 688.16 1450.62 688.39 1576.79 670.83 1752.82 670.61 1753.08 685.63 1720.69 690.57 1720.41 741.63"
                fill="#f15a24" />
            <polygon id="F-00-2" data-name="F-00"
                points="1784.38 771 1720.14 773.2 1720.69 827.54 957.39 827.54 957.39 773.08 993.88 773.8 994.36 771.07 1207.74 771.16 1207.99 780.14 1338.46 780.88 1337.48 771 1738.76 771.38 1784.38 771"
                fill="#f15a24" />
        </g>
    </g>
</svg>