<svg id="Layer_1" data-name="Layer 1" xmlns="http://www.w3.org/2000/svg" xmlns:xlink="http://www.w3.org/1999/xlink"
    width="16000" height="8192" viewBox="0 0 16000 8192">
    <g id="Root">
        <g id="B9">
            <polygon id="_01" data-name="01"
                points="11165.13 4445.67 12603.32 4445.67 12603.32 4553.96 13647.31 4553.96 13647.31 4029.8 14652.31 4029.8 14652.31 5567.63 14184.47 5567.63 14184.47 6018.15 11165.13 6018.15 11165.13 4445.67"
                fill="#f90606" opacity="0" stroke="#000" stroke-miterlimit="10" />
            <polygon id="_02" data-name="02"
                points="11161.13 3642.94 12586.33 3642.94 12586.33 3512.98 13651.98 3512.98 13651.98 4050.14 14648.31 4050.14 14648.31 2464.66 14176.14 2464.66 14176.14 2022.81 12179.13 2022.81 12179.13 1784.55 11104.82 1784.55 11104.82 2027.14 11174.13 2027.14 11161.13 3642.94"
                fill="#f90606" opacity="0" stroke="#000" stroke-miterlimit="10" />
            <polygon id="_03" data-name="03"
                points="9735.27 3638.6 11164.8 3638.6 11164.8 2027.14 11095.49 2027.14 11095.49 1771.56 10112.15 1771.56 10112.15 2022.81 8149.79 2022.81 8149.79 2456 7677.62 2456 7677.62 4045.8 8686.95 4045.8 8686.95 3512.98 9743.93 3512.98 9735.27 3638.6"
                fill="#f90606" opacity="0" stroke="#000" stroke-miterlimit="10" />
            <polygon id="_04" data-name="04"
                points="10222.11 4452.33 10222.11 6020.48 8164.46 6020.48 8164.46 5582.96 7661.96 5582.96 7661.96 4045.14 8692.95 4045.14 8692.95 4582.29 9741.27 4582.29 9741.27 4443.67 10222.11 4452.33"
                fill="#f90606" opacity="0" stroke="#000" stroke-miterlimit="10" />
        </g>
        <g id="B10">
            <polygon id="_01-2" data-name="01"
                points="5120.13 4443.33 5600.97 4443.33 5600.97 4564.63 6649.29 4564.63 6649.29 4031.8 7662.96 4031.8 7662.96 5565.3 7190.78 5565.3 7190.78 6011.48 5120.13 6011.48 5120.13 4443.33"
                fill="#f90606" opacity="0" stroke="#000" stroke-miterlimit="10" />
            <polygon id="_02-2" data-name="02"
                points="4165.45 3633.6 5590.64 3633.6 5590.64 3512.31 6643.29 3512.31 6643.29 4045.14 7665.62 4045.14 7665.62 2468.32 7189.11 2468.32 7189.11 2022.14 5183.44 2022.14 5183.44 1775.22 4165.45 1775.22 4165.45 3633.6"
                fill="#f90606" opacity="0" stroke="#000" stroke-miterlimit="10" />
            <polygon id="_03-2" data-name="03"
                points="4156.11 3964.5 4156.11 1776.89 1028.48 1776.89 1028.48 2816.54 690.59 2816.54 690.59 4051.14 1686.93 4051.14 1686.93 3704.58 2730.92 3704.58 2730.92 4103.59 3199.97 4103.59 3199.97 3964.5 3289.86 3964.5 4156.11 3964.5"
                fill="#f90606" opacity="0" stroke="#000" stroke-miterlimit="10" />
            <polygon id="_04-2" data-name="04"
                points="4157.11 4443.33 2736.25 4443.33 2736.25 4577.62 1683.6 4577.62 1683.6 4036.14 678.6 4036.14 678.6 5270.73 730.58 5270.73 1146.44 5270.73 1146.44 6024.48 4157.11 6024.48 4157.11 4443.33"
                fill="#f90606" opacity="0" stroke="#000" stroke-miterlimit="10" />
        </g>
    </g>
</svg>