<svg id="Layer_1" data-name="Layer 1" xmlns="http://www.w3.org/2000/svg" width="16000" height="8192"
    viewBox="0 0 16000 8192">
    <g id="Root">
        <g id="A11">
            <polygon id="_01" data-name="01"
                points="10105.12 4369.33 10105.12 5605.52 10033.73 5605.52 10033.73 5797.04 10890.35 5797.04 10890.35 5922.4 11663.4 5922.4 11663.4 5626.41 11905.42 5626.41 11905.42 4822.02 11466.66 4822.02 11466.66 4369.33 10105.12 4369.33"
                fill="#f90808" opacity="0" stroke="#000" stroke-miterlimit="10" />
            <polygon id="_02" data-name="02"
                points="12361.58 4369.33 13719.64 4369.33 13719.64 5783.11 12930.92 5783.11 12930.92 5922.4 12166.58 5922.4 12166.58 5622.93 11910.64 5622.93 11910.64 4822.02 12356.36 4822.02 12361.58 4369.33"
                fill="#f90808" opacity="0" stroke="#000" stroke-miterlimit="10" />
            <polygon id="_03" data-name="03"
                points="13270.44 4369.33 13716.16 4369.33 13716.16 4564.34 14288.98 4564.34 14288.98 5208.55 13717.9 5208.55 13717.9 5781.37 14543.18 5781.37 14543.18 5217.25 14950.6 5217.25 14950.6 4945.64 15304.05 4945.64 15304.05 4369.33 14959.31 4369.33 14959.31 3204.54 14060.9 3204.54 14060.9 3860.93 13270.44 3860.93 13270.44 4369.33"
                fill="#f90808" opacity="0" stroke="#000" stroke-miterlimit="10" />
            <polygon id="_04" data-name="04"
                points="11336.08 3657.22 13266.96 3657.22 13266.96 3864.41 14057.42 3864.41 14057.42 2730.96 13752.72 2730.96 13752.72 2400.15 12178.77 2400.15 12178.77 2360.1 11336.08 2360.1 11336.08 3657.22"
                fill="#f90808" opacity="0" stroke="#000" stroke-miterlimit="10" />
            <polygon id="_05" data-name="05"
                points="11339.56 3657.22 9405.19 3657.22 9405.19 3862.67 8614.73 3862.67 8614.73 2737.92 8921.17 2737.92 8921.17 2400.15 10495.12 2400.15 10495.12 2363.59 11339.56 2363.59 11339.56 3657.22"
                fill="#f90808" opacity="0" stroke="#000" stroke-miterlimit="10" />
            <polygon id="_06" data-name="06"
                points="9401.71 4160.4 9401.71 3860.93 8611.25 3860.93 8611.25 2960.78 7826.02 2960.78 7826.02 5013.54 8163.79 5013.54 8163.79 5784.85 9744.71 5784.85 9744.71 5605.52 10106.86 5605.52 10106.86 5015.28 9534.04 5015.28 9534.04 4372.82 9401.71 4372.82 9401.71 4160.4"
                fill="#f90808" opacity="0" stroke="#000" stroke-miterlimit="10" />
        </g>
        <g id="A12">
            <polygon id="_01-2" data-name="01"
                points="6220.47 3862.57 7015.53 3862.57 7015.53 2960.59 7799.61 2960.59 7799.61 5016.77 7467.89 5016.77 7467.89 5789.89 5891.48 5789.89 5891.48 5600.72 5526.86 5600.72 5526.86 5016.77 6097.1 5016.77 6097.1 4375.24 6220.47 4375.24 6220.47 3862.57"
                fill="#f90808" opacity="0" stroke="#000" stroke-miterlimit="10" />
            <polygon id="_02-2" data-name="02"
                points="4287.67 3662.43 6220.47 3662.43 6220.47 3854.34 7018.27 3854.34 7018.27 2735.78 6708.47 2735.78 6708.47 2398.57 5929.87 2398.57 5929.87 2083.29 5129.33 2083.29 5129.33 2053.13 4287.67 2053.13 4287.67 3662.43"
                fill="#f90808" opacity="0" stroke="#000" stroke-miterlimit="10" />
            <polygon id="_03-2" data-name="03"
                points="4293.15 3659.69 2357.61 3659.69 2357.61 3857.08 1568.04 3857.08 1568.04 2738.52 1866.87 2738.52 1866.87 2404.05 2656.44 2404.05 2656.44 2091.51 3440.53 2091.51 3440.53 2050.39 4293.15 2050.39 4293.15 3659.69"
                fill="#f90808" opacity="0" stroke="#000" stroke-miterlimit="10" />
            <polygon id="_04-2" data-name="04"
                points="2354.86 4364.27 2354.86 3857.08 1565.29 3857.08 1565.29 2960.59 792.17 2960.59 792.17 5016.77 1115.68 5016.77 1115.68 5781.66 2609.83 5781.66 2609.83 5608.94 3144.44 5608.94 3144.44 5022.25 2576.93 5022.25 2576.93 4371.13 2354.86 4364.27"
                fill="#f90808" opacity="0" stroke="#000" stroke-miterlimit="10" />
            <polygon id="_05-2" data-name="05"
                points="4159.35 4368.27 5521.98 4368.27 5521.98 5786.9 3930.02 5786.9 3930.02 5605.57 3143.37 5605.57 3143.37 4368.27 3588.69 4368.27 3588.69 5018.92 4162.01 5018.92 4159.35 4368.27"
                fill="#f90808" opacity="0" stroke="#000" stroke-miterlimit="10" />
        </g>
    </g>
</svg>