<svg id="Layer_1" data-name="Layer 1" xmlns="http://www.w3.org/2000/svg" width="16000" height="8192"
    viewBox="0 0 16000 8192">
    <g id="Root">
        <g id="A5">
            <polygon id="_01" data-name="01"
                points="10774.59 4377.54 10774.59 5791.82 12365.17 5791.82 12365.17 5615.53 13148.71 5615.53 13148.71 4377.54 12706.01 4377.54 12706.01 5016.12 12134.03 5016.12 12134.03 4377.54 10774.59 4377.54"
                fill="red" opacity="0" stroke="#000" stroke-miterlimit="10" />
            <polygon id="_02" data-name="02"
                points="13724.61 4377.54 13724.61 5027.88 13156.54 5027.88 13156.54 5611.61 13689.35 5611.61 13689.35 5787.91 15193.74 5787.91 15193.74 5020.04 15518.91 5020.04 15518.91 2947.59 14731.45 2947.59 14731.45 3864.33 13940.08 3864.33 13940.08 4367.75 13724.61 4377.54"
                fill="red" opacity="0" stroke="#000" stroke-miterlimit="10" />
            <polygon id="_03" data-name="03"
                points="12012.58 3664.52 13940.08 3664.52 13940.08 3868.24 14735.37 3868.24 14735.37 2739.95 14429.79 2739.95 14429.79 2399.11 13642.34 2399.11 13642.34 2089.62 12854.88 2089.62 12854.88 2042.6 12012.58 2042.6 12012.58 3664.52"
                fill="red" opacity="0" stroke="#000" stroke-miterlimit="10" />
            <polygon id="_04" data-name="04"
                points="12004.75 3668.44 12004.75 2058.28 11170.28 2058.28 11170.28 2085.7 10367.16 2085.7 10367.16 2406.95 9564.03 2406.95 9564.03 2736.03 9266.29 2736.03 9266.29 3860.41 10057.66 3860.41 10057.66 3668.44 12004.75 3668.44"
                fill="red" opacity="0" stroke="#000" stroke-miterlimit="10" />
            <polygon id="_05" data-name="05"
                points="10073.33 4361.87 10073.33 3868.24 9293.71 3868.24 9274.12 2959.34 8494.5 2959.34 8494.5 5027.88 8835.34 5027.88 8835.34 5787.91 10406.33 5787.91 10406.33 5615.11 10774.59 5606.39 10774.59 5008.29 10186.94 5008.29 10186.94 4373.63 10073.33 4361.87"
                fill="red" opacity="0" stroke="#000" stroke-miterlimit="10" />
        </g>
        <g id="A6">
            <polygon id="_01-2" data-name="01"
                points="6892.17 4173.82 6892.17 3868.24 7675.71 3868.24 7675.71 2959.34 8467.08 2959.34 8467.08 5027.88 8134.08 5027.88 8134.08 5787.91 6555.25 5787.91 6555.25 5603.78 6183.07 5603.78 6183.07 5020.04 6758.97 5020.04 6758.97 4373.63 6888.25 4373.63 6892.17 4173.82"
                fill="red" opacity="0" stroke="#000" stroke-miterlimit="10" />
            <polygon id="_02-2" data-name="02"
                points="4960.76 3668.44 6888.25 3668.44 6888.25 3864.33 7683.54 3864.33 7683.54 2739.95 7385.8 2739.95 7385.8 2399.11 5795.22 2399.11 5795.22 2371.69 4960.76 2371.69 4960.76 3668.44"
                fill="red" opacity="0" stroke="#000" stroke-miterlimit="10" />
            <polygon id="_03-2" data-name="03"
                points="4949 3672.36 4949 2363.85 4114.53 2363.85 4114.53 2410.87 2516.12 2410.87 2516.12 2728.2 2222.3 2728.2 2222.3 3868.24 3029.34 3868.24 3029.34 3660.61 4949 3672.36"
                fill="red" opacity="0" stroke="#000" stroke-miterlimit="10" />
            <polygon id="_04-2" data-name="04"
                points="3029.34 4173.82 3029.34 3868.24 2237.97 3868.24 2237.97 3213.99 1332.98 3213.99 1332.98 4377.54 984.31 4377.54 984.31 4953.44 1336.9 4953.44 1336.9 5219.84 1752.17 5219.84 1752.17 5783.99 2574.89 5783.99 2574.89 5204.17 2006.82 5204.17 2006.82 4573.43 2578.8 4573.43 2578.8 4373.63 3029.34 4373.63 3029.34 4173.82"
                fill="red" opacity="0" stroke="#000" stroke-miterlimit="10" />
            <polygon id="_05-2" data-name="05"
                points="3938.24 4373.63 2574.89 4373.63 2574.89 5787.91 3354.51 5787.91 3354.51 5940.7 4141.96 5940.7 4141.96 5627.28 4384.85 5627.28 4384.85 4820.24 3926.49 4820.24 3938.24 4373.63"
                fill="red" opacity="0" stroke="#000" stroke-miterlimit="10" />
            <polygon id="_06" data-name="06"
                points="6186.99 4377.54 4827.55 4377.54 4827.55 4824.16 4388.77 4824.16 4388.77 5631.2 4643.42 5631.2 4643.42 5928.94 5411.29 5928.94 5411.29 5791.82 6237.92 5791.82 6237.92 5619.45 6186.99 5619.45 6186.99 4377.54"
                fill="red" opacity="0" stroke="#000" stroke-miterlimit="10" />
        </g>
    </g>
</svg>