<svg id="Layer_1" data-name="Layer 1" xmlns="http://www.w3.org/2000/svg" xmlns:xlink="http://www.w3.org/1999/xlink"
    width="1920" height="1080" viewBox="0 0 1920 1080" preserveAspectRatio="none">
    <g id="Root">
        <image id="Main" width="1920" height="1080" xlink:href="https://res.cloudinary.com/dfyfyxdph/image/upload/v1772511750/Type_C_-_Front_nlajob.webp"/>
        <g id="B-Odd" opacity="1">
            <polygon id="F-04"
                points="728.89 505.81 728.89 561.46 701.55 561.46 695.66 554.31 686.62 553.89 679.48 553.89 555.02 556.31 549.56 551.16 478.92 551.16 489.64 556.31 489.64 558.94 464 558.94 382.64 552.84 374.02 549.27 290.98 549.27 290.98 554.52 257.98 554.31 161.48 549.27 85.79 549.27 85.79 548.99 68.09 548.99 68.09 539.29 85.47 539.29 85.47 526.13 115.85 526.13 115.85 507.66 161.89 507.81 274.31 513.45 290.44 513.45 323.79 504.96 552.09 505.62 687.07 505.62 728.89 505.81"
                fill="#617866" />
            <polygon id="F-03"
                points="728.89 561.46 728.89 618.22 695.27 618.22 686.62 615.19 638.85 613.98 481.35 612.6 486.02 615.71 466.29 616.06 447.42 611.56 380.96 612.25 374.21 609.48 311.73 609.48 291.65 612.94 257.9 612.94 161.33 610.17 86.41 610.17 86.41 609.28 68.09 609.28 68.09 600.98 85.94 600.98 85.79 549.27 161.48 549.27 257.98 554.31 290.98 554.52 290.98 549.27 374.02 549.27 382.64 552.84 464 558.94 489.64 558.94 489.64 556.31 478.92 551.16 549.56 551.16 555.02 556.31 679.48 553.89 686.62 553.89 695.66 554.31 701.55 561.46 728.89 561.46"
                fill="#617866" />
            <polygon id="F-02"
                points="728.89 618.22 728.89 675.69 702.19 675.69 695.29 671.68 687.12 671.68 554.49 671.04 540.54 670.08 477.19 670.08 490.66 672.16 490.18 674.41 463.72 674.41 383.05 670.88 374.71 670.08 313.29 670.08 297.09 673.6 257.32 673.6 161.1 670.88 86.26 670.32 86.26 670.19 82.86 670.3 82.81 670.3 71.38 670.21 71.38 659.39 86.41 659.39 86.41 610.17 161.33 610.17 257.9 612.94 291.65 612.94 311.73 609.48 374.21 609.48 380.96 612.25 447.42 611.56 466.29 616.06 486.02 615.71 481.35 612.6 638.85 613.98 686.62 615.19 695.27 618.22 728.89 618.22"
                fill="#617866" />
            <polygon id="F-01"
                points="728.89 675.69 728.89 731.98 694.33 731.98 662.26 730.86 488.9 731.98 488.9 737.91 474.3 737.91 446.88 729.73 320.35 729.73 68.09 730.35 68.09 718.57 84.85 719.2 86.26 670.32 161.1 670.88 257.32 673.6 297.09 673.6 313.29 670.08 374.71 670.08 383.05 670.88 463.72 674.41 490.18 674.41 490.66 672.16 477.19 670.08 540.54 670.08 554.49 671.04 687.12 671.68 695.29 671.68 702.19 675.69 728.89 675.69"
                fill="#617866" />
            <polygon id="F-00"
                points="728.89 731.98 728.89 801.09 84.06 801.09 84.06 730.79 68.09 730.47 68.09 730.35 320.35 729.73 446.88 729.73 474.3 737.91 488.9 737.91 488.9 731.98 662.26 730.86 694.33 731.98 728.89 731.98"
                fill="#617866" />
        </g>
        <g id="B-Odd-2" opacity="1">
            <polygon id="F-04-2" data-name="F-04"
                points="1837.39 540 1837.39 551 1836.75 551.16 1807.54 551.16 1784.83 557.89 1737.95 557.89 1645.46 556 1613.08 555.79 1522.89 554.52 1457.3 554.52 1440.91 560.41 1415.47 560.41 1426.82 552.84 1355.35 553.05 1349.67 556.84 1220.17 556.84 1213.02 561.46 1179.32 561.46 1179.32 504.52 1353.95 504.52 1389.5 510.47 1457.14 506.09 1601.04 506.4 1665.87 506.4 1785.23 504.96 1785.23 529.86 1804.04 530.32 1804.31 540 1837.39 540"
                fill="#617866" />
            <polygon id="F-03-2" data-name="F-03"
                points="1837.39 599.75 1837.39 608.92 1801.59 624.93 1796.58 625.7 1796.57 625.7 1740.13 624.88 1644.94 614.33 1593.88 610.52 1530.88 610.52 1521.71 612.94 1455.94 612.77 1440.85 616.56 1416.77 617.04 1419.5 612.77 1270.58 612.77 1228 613.29 1179.32 613.07 1179.32 561.46 1213.02 561.46 1220.17 556.84 1349.67 556.84 1355.35 553.05 1426.82 552.84 1415.47 560.41 1440.91 560.41 1457.3 554.52 1522.89 554.52 1613.08 555.79 1645.46 556 1737.95 557.89 1784.83 557.89 1807.54 551.16 1836.75 551.16 1785.23 563.95 1785.23 589.49 1803.57 589.49 1803.75 599.75 1837.39 599.75"
                fill="#617866" />
            <polygon id="F-02-2" data-name="F-02"
                points="1813.82 670.79 1812.87 670.88 1740.43 670.88 1645.49 672.8 1537.4 671.84 1525.7 673.76 1457.06 673.76 1442.46 674.41 1417.12 674.41 1417.12 670.88 1356.83 671.52 1349.61 672.64 1210.73 672.64 1205.92 675.69 1179.32 675.69 1179.32 613.07 1228 613.29 1270.58 612.77 1419.5 612.77 1416.77 617.04 1440.85 616.56 1455.94 612.77 1521.71 612.94 1530.88 610.52 1593.88 610.52 1644.94 614.33 1740.13 624.88 1796.57 625.7 1785.23 627.45 1785.23 649.39 1803.57 649.39 1803.57 658.92 1813.64 658.92 1813.82 670.79"
                fill="#617866" />
            <polygon id="F-01-2" data-name="F-01"
                points="1813.46 719.18 1813.46 729.73 1739.95 729.73 1651.11 731.66 1601.07 730.7 1582.15 730.7 1275.68 731.18 1179.32 731.18 1179.32 675.69 1205.92 675.69 1210.73 672.64 1349.61 672.64 1356.83 671.52 1417.12 670.88 1417.12 674.41 1442.46 674.41 1457.06 673.76 1525.7 673.76 1537.4 671.84 1645.49 672.8 1740.43 670.88 1812.87 670.88 1785.23 673.49 1785.23 709.11 1803.75 709.11 1803.75 719.18 1813.46 719.18"
                fill="#617866" />
            <polygon id="F-00-2" data-name="F-00"
                points="1813.46 729.73 1813.46 730.79 1785.23 730.79 1785.23 801.09 1179.32 801.09 1179.32 731.18 1275.68 731.18 1582.15 730.7 1601.07 730.7 1651.11 731.66 1739.95 729.73 1813.46 729.73"
                fill="#617866" />
        </g>
        <g id="B-Even" opacity="1">
            <polygon id="F-04-3" data-name="F-04"
                points="1179.32 504.52 1179.32 561.46 1157.32 561.46 1163.2 553.26 1066.5 553.68 745.91 554.1 750.95 561.46 728.89 561.46 728.89 505.81 754.71 505.93 754.71 502.8 889.21 502.8 889.21 504.06 1018.4 504.52 1179.32 504.52"
                fill="#dd6a3d" />
            <polygon id="F-00-3" data-name="F-00"
                points="1179.32 731.18 1179.32 801.09 728.89 801.09 728.89 731.98 751.91 731.98 743.57 730.86 841.23 730.86 841.23 731.98 866.09 731.98 1024.22 731.66 1046.35 731.18 1179.32 731.18"
                fill="#dd6a3d" />
            <polygon id="F-01-3" data-name="F-01"
                points="1179.32 675.69 1179.32 731.18 1046.35 731.18 1024.22 731.66 866.09 731.98 841.23 731.98 841.23 730.86 743.57 730.86 751.91 731.98 728.89 731.98 728.89 675.69 751.42 675.69 747.09 671.68 864.97 672.16 882.29 670.88 1011.07 670.88 1011.07 675.69 1179.32 675.69"
                fill="#dd6a3d" />
            <polygon id="F-03-3" data-name="F-03"
                points="1179.32 561.46 1179.32 613.07 1151.33 612.94 1040.73 612.77 1010.27 612.25 883.4 612.77 745.12 612.6 752.56 618.22 728.89 618.22 728.89 561.46 750.95 561.46 745.91 554.1 1066.5 553.68 1163.2 553.26 1157.32 561.46 1179.32 561.46"
                fill="#dd6a3d" />
            <polygon id="F-02-3" data-name="F-02"
                points="1179.32 613.07 1179.32 675.69 1011.07 675.69 1011.07 670.88 882.29 670.88 864.97 672.16 747.09 671.68 751.42 675.69 728.89 675.69 728.89 618.22 752.56 618.22 745.12 612.6 883.4 612.77 1010.27 612.25 1040.73 612.77 1151.33 612.94 1179.32 613.07"
                fill="#dd6a3d" />
        </g>
    </g>
</svg>