<svg id="Layer_1" data-name="Layer 1" xmlns="http://www.w3.org/2000/svg" width="16000" height="8192"
    viewBox="0 0 16000 8192">
    <g id="Root">
        <g id="B8">
            <polygon id="_04" data-name="04"
                points="5101.33 4445.67 3663.14 4445.67 3663.14 4553.96 2619.15 4553.96 2619.15 4029.8 1614.15 4029.8 1614.15 5567.63 2081.99 5567.63 2081.99 6018.15 5101.33 6018.15 5101.33 4445.67"
                fill="#f90606" opacity="0" stroke="#000" stroke-miterlimit="10" />
            <polygon id="_03" data-name="03"
                points="5098.33 3642.94 3673.13 3642.94 3673.13 3512.98 2607.49 3512.98 2607.49 4050.14 1611.15 4050.14 1611.15 2464.66 2083.33 2464.66 2083.33 2022.81 4080.33 2022.81 4080.33 1784.55 5154.64 1784.55 5154.64 2027.14 5085.33 2027.14 5098.33 3642.94"
                fill="#f90606" opacity="0" stroke="#000" stroke-miterlimit="10" />
            <polygon id="_02" data-name="02"
                points="6501.19 3638.6 5071.67 3638.6 5071.67 2027.14 5140.98 2027.14 5140.98 1771.56 6124.32 1771.56 6124.32 2022.81 8086.67 2022.81 8086.67 2456 8558.84 2456 8558.84 4045.8 7549.51 4045.8 7549.51 3512.98 6492.53 3512.98 6501.19 3638.6"
                fill="#f90606" opacity="0" stroke="#000" stroke-miterlimit="10" />
            <polygon id="_01" data-name="01"
                points="6020.35 4457.33 6020.35 6025.48 8078.01 6025.48 8078.01 5587.96 8580.5 5587.96 8580.5 4050.14 7549.51 4050.14 7549.51 4587.29 6501.19 4587.29 6501.19 4448.67 6020.35 4457.33"
                fill="#f90606" opacity="0" stroke="#000" stroke-miterlimit="10" />
        </g>
        <g id="B7">
            <polygon id="_04-2" data-name="04"
                points="11109.33 4443.33 10628.49 4443.33 10628.49 4564.63 9580.17 4564.63 9580.17 4031.8 8566.5 4031.8 8566.5 5565.3 9038.68 5565.3 9038.68 6011.48 11109.33 6011.48 11109.33 4443.33"
                fill="#f90606" opacity="0" stroke="#000" stroke-miterlimit="10" />
            <polygon id="_03-2" data-name="03"
                points="12051.02 3633.6 10625.82 3633.6 10625.82 3512.31 9573.17 3512.31 9573.17 4045.14 8550.84 4045.14 8550.84 2468.32 9027.35 2468.32 9027.35 2022.14 11033.02 2022.14 11033.02 1775.22 12051.02 1775.22 12051.02 3633.6"
                fill="#f90606" opacity="0" stroke="#000" stroke-miterlimit="10" />
            <polygon id="_02-2" data-name="02"
                points="12034.35 3964.5 12034.35 1776.89 15161.98 1776.89 15161.98 2816.54 15499.87 2816.54 15499.87 4051.14 14503.53 4051.14 14503.53 3704.58 13459.54 3704.58 13459.54 4103.59 12990.49 4103.59 12990.49 3964.5 12900.6 3964.5 12034.35 3964.5"
                fill="#f90606" opacity="0" stroke="#000" stroke-miterlimit="10" />
            <polygon id="_01-2" data-name="01"
                points="12026.35 4443.33 13447.21 4443.33 13447.21 4577.62 14499.86 4577.62 14499.86 4036.14 15504.86 4036.14 15504.86 5270.73 15452.88 5270.73 15037.02 5270.73 15037.02 6024.48 12026.35 6024.48 12026.35 4443.33"
                fill="#f90606" opacity="0" stroke="#000" stroke-miterlimit="10" />
        </g>
    </g>
</svg>