<svg id="Layer_1" data-name="Layer 1" xmlns="http://www.w3.org/2000/svg" width="16000" height="8192"
    viewBox="0 0 16000 8192">
    <g id="Root">
        <g id="B22">
            <polygon id="_04" data-name="04"
                points="4565.45 4578.29 4565.45 6176.77 1503.58 6176.77 1503.58 5726.49 1084.82 5726.49 1084.82 5424.81 1039.79 5424.81 1039.79 4173.04 2043.91 4173.04 2043.91 4695.36 3120.07 4695.36 3120.07 4564.78 4565.45 4578.29"
                fill="#fc0606" opacity="0" stroke="#000" stroke-miterlimit="10" stroke-width="1.01" />
            <polygon id="_03" data-name="03"
                points="4553.97 3781.49 4553.97 2142.49 4580.98 2142.49 4580.98 1818.29 3536.34 1818.29 3536.34 2137.98 1510.1 2137.98 1510.1 2592.76 1046.32 2592.76 1046.32 4191.24 2054.93 4191.24 2054.93 3632.9 3126.59 3632.9 3126.59 3767.98 4553.97 3781.49"
                fill="#fc0606" opacity="0" stroke="#000" stroke-miterlimit="10" stroke-width="1.01" />
            <polygon id="_02" data-name="02"
                points="4558.52 3761.42 4550.82 2148.55 4576.5 2148.55 4579.07 1828.86 5696.27 1828.86 5698.84 2144.05 7586.54 2144.05 7586.54 2577.44 8066.82 2574.79 8052.6 4174.91 7039.49 4169.78 7047.2 3643.47 5983.92 3643.47 5989.06 3758.85 4558.52 3761.42"
                fill="#fc0606" opacity="0" stroke="#000" stroke-miterlimit="10" stroke-width="1.01" />
            <polygon id="_01" data-name="01"
                points="4558.35 4578.08 5113.27 4572.58 5111.8 4293.29 5984.97 4295.98 5984.97 4594.2 5987.65 4709.72 7043.48 4715.19 7046.19 4169.71 8077.87 4169.71 8077.87 5727.96 7578.15 5730.65 7578.15 6157.83 4555.67 6157.83 4558.35 4578.08"
                fill="#fc0606" opacity="0" stroke="#000" stroke-miterlimit="10" stroke-width="1.01" />
        </g>
        <g id="B21">
            <polygon id="_04-2" data-name="04"
                points="11591.77 4580.1 11028.86 4576.91 11033.54 4295.56 10155.39 4297.26 10155.39 4708.74 9091.85 4707.01 9095.69 4171.84 8079.13 4170.78 8078.27 5727.23 8566.39 5727.25 8563.06 6172.37 11591.77 6167.81 11591.77 4580.1"
                fill="#fc0606" opacity="0" stroke="#000" stroke-miterlimit="10" stroke-width="1.01" />
            <polygon id="_03-2" data-name="03"
                points="11594.87 3775.49 10147.98 3775.49 10147.98 3644.46 9101.55 3646.33 9103.94 4174.33 8092.18 4176.42 8092.31 2580.61 8544.03 2576.38 8544.03 2138.23 10436.96 2138.23 10434.87 1828.86 11594.87 1828.86 11594.87 3775.49"
                fill="#fc0606" opacity="0" stroke="#000" stroke-miterlimit="10" stroke-width="1.01" />
            <polygon id="_02-2" data-name="02"
                points="12551.53 4236.17 12551.53 4097.71 11590.11 4096.91 11590.11 1819.34 12732.39 1819.34 12732.39 1895.49 13736.64 1895.49 13736.64 1830.01 14778.97 1825.77 14778.97 2937.82 15097.91 2937.82 15097.91 4175.44 14093.6 4179.69 14093.6 3837.37 13037 3837.37 13037 4238.42 12551.53 4236.17"
                fill="#fc0606" opacity="0" stroke="#000" stroke-miterlimit="10" stroke-width="1.01" />
            <polygon id="_01-2" data-name="01"
                points="11590.11 4579.99 11590.11 6167.33 14655.23 6167.33 14655.23 5732.09 15048.35 5736.68 15050.64 5430.48 15103.59 5428.01 15102.48 4184.81 14066.81 4184.81 14068.16 4697.51 13033.65 4698.61 13034.3 4577.9 11590.11 4579.99"
                fill="#fc0606" opacity="0" stroke="#000" stroke-miterlimit="10" stroke-width="1.01" />
        </g>
    </g>
</svg>