<svg id="Layer_1" data-name="Layer 1" xmlns="http://www.w3.org/2000/svg" width="16000" height="8192"
    viewBox="0 0 16000 8192">
    <g id="Root">
        <g id="B1">
            <polygon id="_01" data-name="01"
                points="11168.5 4447.66 12606.69 4447.66 12606.69 4555.96 13650.68 4555.96 13650.68 4031.8 14655.68 4031.8 14655.68 5569.63 14187.84 5569.63 14187.84 6020.15 11168.5 6020.15 11168.5 4447.66"
                fill="#f90606" opacity="0" stroke="#000" stroke-miterlimit="10" />
            <polygon id="_02" data-name="02"
                points="11168.5 3628.94 12593.7 3628.94 12593.7 3498.98 13659.34 3498.98 13659.34 4036.14 14655.68 4036.14 14655.68 2450.66 14183.5 2450.66 14183.5 2008.81 12186.5 2008.81 12186.5 1770.55 11112.19 1770.55 11112.19 2013.14 11181.5 2013.14 11168.5 3628.94"
                fill="#f90606" opacity="0" stroke="#000" stroke-miterlimit="10" />
            <polygon id="_03" data-name="03"
                points="9747.64 3624.6 11177.17 3624.6 11177.17 2013.14 11107.85 2013.14 11107.85 1757.56 10124.51 1757.56 10124.51 2008.81 8162.16 2008.81 8162.16 2442 7689.99 2442 7689.99 4031.8 8699.32 4031.8 8699.32 3498.98 9756.3 3498.98 9747.64 3624.6"
                fill="#f90606" opacity="0" stroke="#000" stroke-miterlimit="10" />
            <polygon id="_04" data-name="04"
                points="10228.48 4443.33 10228.48 6011.48 8170.83 6011.48 8170.83 5573.96 7668.33 5573.96 7668.33 4036.14 8699.32 4036.14 8699.32 4573.29 9747.64 4573.29 9747.64 4434.67 10228.48 4443.33"
                fill="#f90606" opacity="0" stroke="#000" stroke-miterlimit="10" />
        </g>
        <g id="B2">
            <polygon id="_01-2" data-name="01"
                points="5125.5 4443.33 5606.34 4443.33 5606.34 4564.63 6654.66 4564.63 6654.66 4031.8 7668.33 4031.8 7668.33 5565.3 7196.15 5565.3 7196.15 6011.48 5125.5 6011.48 5125.5 4443.33"
                fill="#f90606" opacity="0" stroke="#000" stroke-miterlimit="10" />
            <polygon id="_02-2" data-name="02"
                points="4176.81 3624.6 5602.01 3624.6 5602.01 3503.31 6654.66 3503.31 6654.66 4036.14 7676.99 4036.14 7676.99 2459.32 7200.48 2459.32 7200.48 2013.14 5194.81 2013.14 5194.81 1766.22 4176.81 1766.22 4176.81 3624.6"
                fill="#f90606" opacity="0" stroke="#000" stroke-miterlimit="10" />
            <polygon id="_03-2" data-name="03"
                points="4172.48 3949.5 4172.48 1761.89 1044.85 1761.89 1044.85 2801.54 706.96 2801.54 706.96 4036.14 1703.3 4036.14 1703.3 3689.58 2747.29 3689.58 2747.29 4088.59 3216.34 4088.59 3216.34 3949.5 3306.23 3949.5 4172.48 3949.5"
                fill="#f90606" opacity="0" stroke="#000" stroke-miterlimit="10" />
            <polygon id="_04-2" data-name="04"
                points="4172.48 4443.33 2751.62 4443.33 2751.62 4577.62 1698.97 4577.62 1698.97 4036.14 693.97 4036.14 693.97 5270.73 745.95 5270.73 1161.81 5270.73 1161.81 6024.48 4172.48 6024.48 4172.48 4443.33"
                fill="#f90606" opacity="0" stroke="#000" stroke-miterlimit="10" />
        </g>
    </g>
</svg>