<svg id="Layer_1" data-name="Layer 1" xmlns="http://www.w3.org/2000/svg" width="16000" height="8192"
    viewBox="0 0 16000 8192">
    <g id="Root">
        <g id="B8">
            <polygon id="_04" data-name="04"
                points="5091.1 4443.24 5091.1 6024.3 2062.6 6024.3 2062.6 5578.93 1648.4 5578.93 1648.4 5280.53 1603.87 5280.53 1603.87 4042.41 2597.04 4042.41 2597.04 4559.03 3661.47 4559.03 3661.47 4429.88 5091.1 4443.24"
                fill="#fc0606" opacity="0" stroke="#000" stroke-miterlimit="10" />
            <polygon id="_03" data-name="03"
                points="5079.74 3655.12 5079.74 2033.98 5106.47 2033.98 5106.47 1713.31 4073.21 1713.31 4073.21 2029.53 2069.05 2029.53 2069.05 2479.35 1610.32 2479.35 1610.32 4060.41 2607.95 4060.41 2607.95 3508.15 3667.93 3508.15 3667.93 3641.76 5079.74 3655.12"
                fill="#fc0606" opacity="0" stroke="#000" stroke-miterlimit="10" />
            <polygon id="_02" data-name="02"
                points="5084.25 3635.27 5076.63 2039.98 5102.03 2039.98 5104.57 1723.77 6209.6 1723.77 6212.15 2035.53 8079.27 2035.53 8079.27 2464.19 8554.32 2461.57 8540.25 4044.26 7538.18 4039.18 7545.8 3518.6 6494.12 3518.6 6499.2 3632.73 5084.25 3635.27"
                fill="#fc0606" opacity="0" stroke="#000" stroke-miterlimit="10" />
            <polygon id="_01" data-name="01"
                points="5084.08 4443.03 5632.95 4437.59 5631.5 4161.35 6495.15 4164 6495.15 4458.97 6497.81 4573.24 7542.13 4578.64 7544.81 4039.11 8565.24 4039.11 8565.24 5580.38 8070.97 5583.04 8070.97 6005.56 5081.43 6005.56 5084.08 4443.03"
                fill="#fc0606" opacity="0" stroke="#000" stroke-miterlimit="10" />
        </g>
        <g id="B7">
            <polygon id="_04-2" data-name="04"
                points="12040.85 4445.03 11484.08 4441.87 11488.7 4163.59 10620.12 4165.27 10620.12 4572.27 9568.17 4570.55 9571.97 4041.22 8566.49 4040.17 8565.65 5579.66 9048.44 5579.67 9045.15 6019.94 12040.85 6015.44 12040.85 4445.03"
                fill="#fc0606" opacity="0" stroke="#000" stroke-miterlimit="10" />
            <polygon id="_03-2" data-name="03"
                points="12043.92 3649.19 10612.8 3649.19 10612.8 3519.59 9577.77 3521.43 9580.13 4043.68 8579.4 4045.75 8579.53 2467.33 9026.33 2463.14 9026.33 2029.77 10898.63 2029.77 10896.56 1723.77 12043.92 1723.77 12043.92 3649.19"
                fill="#fc0606" opacity="0" stroke="#000" stroke-miterlimit="10" />
            <polygon id="_02-2" data-name="02"
                points="12990.15 4104.85 12990.15 3967.9 12039.21 3967.1 12039.21 1714.36 13169.04 1714.36 13169.04 1789.68 14162.35 1789.68 14162.35 1724.91 15193.32 1720.71 15193.32 2820.65 15508.78 2820.65 15508.78 4044.78 14515.42 4048.98 14515.42 3710.39 13470.33 3710.39 13470.33 4107.07 12990.15 4104.85"
                fill="#fc0606" opacity="0" stroke="#000" stroke-miterlimit="10" />
            <polygon id="_01-2" data-name="01"
                points="12039.21 4444.92 12039.21 6014.96 15070.92 6014.96 15070.92 5584.47 15459.76 5589 15462.02 5286.14 15514.4 5283.7 15513.3 4054.05 14488.91 4054.05 14490.25 4561.16 13467.02 4562.25 13467.66 4442.85 12039.21 4444.92"
                fill="#fc0606" opacity="0" stroke="#000" stroke-miterlimit="10" />
        </g>
    </g>
</svg>