<svg id="Layer_1" data-name="Layer 1" xmlns="http://www.w3.org/2000/svg" width="16000" height="8192"
    viewBox="0 0 16000 8192">
    <g id="Root">
        <g id="C16">
            <polygon id="_01" data-name="01"
                points="4407.44 3786.96 4407.44 4706.59 5583.41 4706.59 5583.41 4459.86 5883.01 4459.86 5883.01 3553.05 5295.02 3553.05 5295.02 3857.45 4636.54 3857.45 4636.54 3782.15 4407.44 3786.96"
                fill="#f90606" opacity="0" stroke="#000" stroke-miterlimit="10" />
            <polygon id="_02" data-name="02"
                points="4367.38 3423.27 4367.38 3380.01 4642.95 3380.01 4642.95 3245.43 5293.42 3245.43 5293.42 3551.44 5881.41 3551.44 5881.41 2646.24 5583.41 2646.24 5583.41 2391.49 4405.84 2391.49 4405.84 2277.74 3817.85 2277.74 3817.85 3426.48 4367.38 3423.27"
                fill="#f90606" opacity="0" stroke="#000" stroke-miterlimit="10" />
            <polygon id="_03" data-name="03"
                points="2345.74 3426.62 2612.65 3426.62 2612.65 3129.51 3262.85 3128.45 3262.85 3426.62 3810.36 3426.62 3810.36 2542.85 3528.48 2542.03 3530.93 2293.39 2939.18 2293.39 2938.77 2178.06 2345.74 2176.84 2345.74 3426.62"
                fill="#f90606" opacity="0" stroke="#000" stroke-miterlimit="10" />
            <polygon id="_04" data-name="04"
                points="2070.8 3505.66 2070.8 3428.66 2342.88 3428.66 2342.88 2381.41 1697.76 2381.41 1697.76 2282.16 1109.11 2282.16 1109.11 2242.8 513.62 2242.8 513.62 2838.3 274.05 2838.3 274.05 3599.78 883.23 3599.78 883.23 3363.63 1516.38 3363.63 1516.38 3507.37 2070.8 3505.66"
                fill="#f90606" opacity="0" stroke="#000" stroke-miterlimit="10" />
            <polygon id="_05" data-name="05"
                points="2068.8 3699.45 2068.8 3776.45 2340.88 3776.45 2340.88 4823.7 1695.76 4823.7 1695.76 4922.95 1107.11 4922.95 1107.11 4962.31 511.62 4962.31 511.62 4366.81 272.05 4366.81 272.05 3605.33 881.23 3605.33 881.23 3841.48 1514.38 3841.48 1514.38 3697.74 2068.8 3699.45"
                fill="#f90606" opacity="0" stroke="#000" stroke-miterlimit="10" />
            <polygon id="_06" data-name="06"
                points="2345.74 3780.2 2612.65 3780.2 2611.59 4082.01 3264.97 4083.07 3262.85 3780.2 3810.36 3780.2 3810.36 4663.97 3528.48 4664.79 3530.93 4913.43 2939.18 4913.43 2938.77 5028.76 2345.74 5029.98 2345.74 3780.2"
                fill="#f90606" opacity="0" stroke="#000" stroke-miterlimit="10" />
        </g>
        <g id="C18">
            <polygon id="_06-2" data-name="06"
                points="11549.43 3785.96 11549.43 4705.59 10373.46 4705.59 10373.46 4458.86 10073.86 4458.86 10073.86 3552.05 10661.85 3552.05 10661.85 3856.45 11320.33 3856.45 11320.33 3781.15 11549.43 3785.96"
                fill="#f90606" opacity="0" stroke="#000" stroke-miterlimit="10" />
            <polygon id="_05-2" data-name="05"
                points="11589.49 3422.27 11589.49 3379.01 11313.92 3379.01 11313.92 3244.43 10663.45 3244.43 10663.45 3550.44 10075.47 3550.44 10075.47 2645.24 10373.46 2645.24 10373.46 2390.49 11551.04 2390.49 11551.04 2276.74 12139.02 2276.74 12139.02 3425.48 11589.49 3422.27"
                fill="#f90606" opacity="0" stroke="#000" stroke-miterlimit="10" />
            <polygon id="_04-2" data-name="04"
                points="13611.13 3425.62 13344.23 3425.62 13344.23 3128.51 12694.02 3127.45 12694.02 3425.62 12146.52 3425.62 12146.52 2541.85 12428.39 2541.03 12425.94 2292.39 13017.69 2292.39 13018.1 2177.06 13611.13 2175.84 13611.13 3425.62"
                fill="#f90606" opacity="0" stroke="#000" stroke-miterlimit="10" />
            <polygon id="_03-2" data-name="03"
                points="13886.07 3504.66 13886.07 3427.66 13613.99 3427.66 13613.99 2380.41 14259.11 2380.41 14259.11 2281.16 14847.76 2281.16 14847.76 2241.8 15443.25 2241.8 15443.25 2837.3 15682.82 2837.3 15682.82 3598.78 15073.64 3598.78 15073.64 3362.63 14440.5 3362.63 14440.5 3506.37 13886.07 3504.66"
                fill="#f90606" opacity="0" stroke="#000" stroke-miterlimit="10" />
            <polygon id="_02-2" data-name="02"
                points="13888.07 3698.45 13888.07 3775.45 13615.99 3775.45 13615.99 4822.7 14261.11 4822.7 14261.11 4921.95 14849.76 4921.95 14849.76 4961.31 15445.25 4961.31 15445.25 4365.81 15684.82 4365.81 15684.82 3604.33 15075.64 3604.33 15075.64 3840.48 14442.5 3840.48 14442.5 3696.74 13888.07 3698.45"
                fill="#f90606" opacity="0" stroke="#000" stroke-miterlimit="10" />
            <polygon id="_01-2" data-name="01"
                points="13611.13 3779.2 13344.23 3779.2 13345.29 4081.01 12691.9 4082.07 12694.02 3779.2 12146.52 3779.2 12146.52 4662.97 12428.39 4663.79 12425.94 4912.43 13017.69 4912.43 13018.1 5027.76 13611.13 5028.98 13611.13 3779.2"
                fill="#f90606" opacity="0" stroke="#000" stroke-miterlimit="10" />
        </g>
        <g id="C17">
            <polyline id="_01-3" data-name="01"
                points="7980 3784.31 7980 4819.88 7388.24 4819.88 7388.24 4716.33 6207.69 4716.33 6207.69 4461.87 5917.73 4461.87 5917.73 3553.53 6500.61 3553.53 6500.61 3855.32 7154.5 3855.32 7154.5 3786.02"
                fill="#f90606" opacity="0" stroke="#000" stroke-miterlimit="10" />
            <polyline id="_04-3" data-name="04"
                points="8568.47 3784.31 8572.71 4716.33 9753.26 4716.33 9753.26 4461.87 10043.22 4461.87 10043.22 3553.53 9460.34 3553.53 9460.34 3855.32 8806.45 3855.32 8806.45 3786.02"
                fill="#f90606" opacity="0" stroke="#000" stroke-miterlimit="10" />
            <polyline id="_02-3" data-name="02"
                points="8801.45 3319.28 7987.84 3321.67 7987.84 2280.59 8568.2 2277.7 8567.71 2388.97 9748.26 2388.97 9748.26 2643.43 10038.22 2643.43 10038.22 3551.77 9455.34 3551.77 9455.34 3249.98 8801.45 3249.98 8801.45 3319.28"
                fill="#f90606" opacity="0" stroke="#000" stroke-miterlimit="10" />
            <polyline id="_03-3" data-name="03"
                points="7160.44 3319.28 7974.06 3321.67 7974.06 2280.59 7393.69 2277.7 7394.19 2388.97 6213.64 2388.97 6213.64 2643.43 5923.68 2643.43 5923.68 3551.77 6506.56 3551.77 6506.56 3249.98 7160.44 3249.98 7160.44 3319.28"
                fill="#f90606" opacity="0" stroke="#000" stroke-miterlimit="10" />
        </g>
    </g>
</svg>