<svg id="Layer_1" data-name="Layer 1" xmlns="http://www.w3.org/2000/svg" width="16000" height="8192"
    viewBox="0 0 16000 8192">
    <g id="Root">
        <g id="B22">
            <polygon id="_04" data-name="04"
                points="5187.71 4543.52 3838.6 4543.52 3838.6 4645.1 2859.27 4645.1 2859.27 4153.41 1916.52 4153.41 1916.52 5595.99 2355.39 5595.99 2355.39 6018.6 5187.71 6018.6 5187.71 4543.52"
                fill="#f90606" opacity="0" stroke="#000" stroke-miterlimit="10" stroke-width="0.94" />
            <polygon id="_03" data-name="03"
                points="5184.9 3790.5 3847.98 3790.5 3847.98 3668.6 2848.33 3668.6 2848.33 4172.48 1913.71 4172.48 1913.71 2685.21 2356.64 2685.21 2356.64 2270.72 4229.95 2270.72 4229.95 2047.22 5237.73 2047.22 5237.73 2274.78 5172.71 2274.78 5184.9 3790.5"
                fill="#f90606" opacity="0" stroke="#000" stroke-miterlimit="10" stroke-width="0.94" />
            <polygon id="_02" data-name="02"
                points="6500.87 3786.44 5159.89 3786.44 5159.89 2274.78 5224.9 2274.78 5224.9 2035.03 6147.34 2035.03 6147.34 2270.72 7988.15 2270.72 7988.15 2677.08 8431.08 2677.08 8431.08 4168.42 7484.26 4168.42 7484.26 3668.6 6492.75 3668.6 6500.87 3786.44"
                fill="#f90606" opacity="0" stroke="#000" stroke-miterlimit="10" stroke-width="0.94" />
            <polygon id="_01" data-name="01"
                points="6049.81 4554.46 6049.81 6025.48 7980.02 6025.48 7980.02 5615.06 8451.4 5615.06 8451.4 4172.48 7484.26 4172.48 7484.26 4676.37 6500.87 4676.37 6500.87 4546.33 6049.81 4554.46"
                fill="#f90606" opacity="0" stroke="#000" stroke-miterlimit="10" stroke-width="0.94" />
        </g>
        <g id="B21">
            <polygon id="_04-2" data-name="04"
                points="10823.6 4541.33 10372.54 4541.33 10372.54 4655.11 9389.15 4655.11 9389.15 4155.29 8438.27 4155.29 8438.27 5593.8 8881.2 5593.8 8881.2 6012.35 10823.6 6012.35 10823.6 4541.33"
                fill="#f90606" opacity="0" stroke="#000" stroke-miterlimit="10" stroke-width="0.94" />
            <polygon id="_03-2" data-name="03"
                points="11706.96 3781.75 10370.03 3781.75 10370.03 3667.97 9382.58 3667.97 9382.58 4167.79 8423.57 4167.79 8423.57 2688.64 8870.57 2688.64 8870.57 2270.09 10752.01 2270.09 10752.01 2038.47 11706.96 2038.47 11706.96 3781.75"
                fill="#f90606" opacity="0" stroke="#000" stroke-miterlimit="10" stroke-width="0.94" />
            <polygon id="_02-2" data-name="02"
                points="11691.32 4092.15 11691.32 2040.03 14625.24 2040.03 14625.24 3015.3 14942.2 3015.3 14942.2 4173.42 14007.57 4173.42 14007.57 3848.33 13028.24 3848.33 13028.24 4222.63 12588.24 4222.63 12588.24 4092.15 12503.92 4092.15 11691.32 4092.15"
                fill="#f90606" opacity="0" stroke="#000" stroke-miterlimit="10" stroke-width="0.94" />
            <polygon id="_01-2" data-name="01"
                points="11683.82 4541.33 13016.67 4541.33 13016.67 4667.3 14004.13 4667.3 14004.13 4159.35 14946.88 4159.35 14946.88 5317.47 14898.12 5317.47 14508.01 5317.47 14508.01 6024.54 11683.82 6024.54 11683.82 4541.33"
                fill="#f90606" opacity="0" stroke="#000" stroke-miterlimit="10" stroke-width="0.94" />
        </g>
    </g>
</svg>