<svg id="Layer_1" data-name="Layer 1" xmlns="http://www.w3.org/2000/svg" width="16000" height="8192"
    viewBox="0 0 16000 8192">
    <g id="Root">
        <g id="A3">
            <polygon id="_01" data-name="01"
                points="10101.23 4398.61 11463.69 4398.61 11463.69 4838.92 11908.15 4838.92 11908.15 5648.92 11654.77 5648.92 11654.77 5948 10886.31 5948 10886.31 5810.92 10043.08 5810.92 10043.08 5628.15 10101.23 5628.15 10101.23 4398.61"
                fill="#f70b0b" opacity="0" stroke="none" stroke-miterlimit="1" stroke-width="1" />
            <polygon id="_02" data-name="02"
                points="12946.61 4394.46 12356.77 4394.46 12356.77 4838.92 11912.31 4838.92 11912.31 5648.92 12157.39 5648.92 12157.39 5956.31 12925.85 5956.31 12925.85 5802.61 13715.08 5802.61 13715.08 4394.46 12946.61 4394.46"
                fill="#f70b0b" opacity="0" stroke="none" stroke-miterlimit="1" stroke-width="1" />
            <polygon id="_03" data-name="03"
                points="13266.46 4186.77 13266.46 3891.85 14047.39 3891.85 14047.39 3235.54 14948.77 3235.54 14948.77 4394.46 15310.15 4394.46 15310.15 4967.69 14952.92 4967.69 14952.92 5246 14529.23 5246 14529.23 5815.08 13710.92 5815.08 13710.92 5229.39 14288.31 5229.39 14288.31 4577.23 13715.08 4577.23 13715.08 4394.46 13266.46 4394.46 13266.46 4186.77"
                fill="#f70b0b" opacity="0" stroke="none" stroke-miterlimit="1" stroke-width="1" />
            <polygon id="_04" data-name="04"
                points="11575.85 3680 13262.31 3680 13262.31 3887.69 14055.69 3887.69 14055.69 2757.85 13756.61 2757.85 13756.61 2408.92 12535.39 2408.92 12257.08 2292.61 12165.69 2292.61 12165.69 2379.85 11330.77 2379.85 11330.77 3684.15 11575.85 3680"
                fill="#f70b0b" opacity="0" stroke="none" stroke-miterlimit="1" stroke-width="1" />
            <polygon id="_05" data-name="05"
                points="11330.6 3687.36 11330.6 2392.03 10480.77 2392.03 10480.77 2433.21 8912.14 2433.21 8912.14 2758.91 8597.66 2758.91 8597.66 3885.78 9402.57 3885.78 9402.57 3672.39 11330.6 3687.36"
                fill="#f70b0b" opacity="0" stroke="none" stroke-miterlimit="1" stroke-width="1" />
            <polygon id="_06" data-name="06"
                points="9395.08 4177.8 9395.08 3882.04 8616.38 3882.04 8616.38 2983.54 7818.96 2983.54 7818.96 5042.6 8159.65 5042.6 8159.65 5813.82 9724.53 5813.82 9724.53 5630.37 10098.91 5630.37 10098.91 5035.11 9522.37 5035.11 9522.37 4398.68 9395.08 4398.68 9395.08 4177.8"
                fill="#f70b0b" opacity="0" stroke="none" stroke-miterlimit="1" stroke-width="1" />
        </g>
        <g id="A4">
            <polygon id="_01-2" data-name="01"
                points="6209.06 4294.74 6209.06 3892.19 7014.16 3892.19 7014.16 2976.25 7790.08 2976.25 7790.08 5053.16 7463.38 5053.16 7463.38 5823.24 5876.53 5823.24 5876.53 5630.72 5514.82 5630.72 5514.82 5047.32 6098.22 5047.32 6098.22 4399.75 6209.06 4399.75 6209.06 4294.74"
                fill="#f70b0b" opacity="0" stroke="none" stroke-miterlimit="1" stroke-width="1" />
            <polygon id="_02-2" data-name="02"
                points="4546.38 3682.17 6226.57 3682.17 6226.57 3898.03 7014.16 3898.03 7014.16 2748.73 6704.95 2748.73 6704.95 2416.19 5923.2 2416.19 5923.2 2095.32 5123.94 2095.32 5123.94 2060.32 4348.02 2060.32 4348.02 2317.01 4295.51 2317.01 4295.51 3683.52 4546.38 3682.17"
                fill="#f70b0b" opacity="0" stroke="none" stroke-miterlimit="1" stroke-width="1" />
            <polygon id="_03-2" data-name="03"
                points="4280.05 3678.49 4280.05 2316.94 4193.26 2316.94 4193.26 2083.69 3439.26 2083.69 3439.26 2116.24 2641.86 2116.24 2641.86 2414.58 1855.31 2414.58 1855.31 2740.05 1551.54 2740.05 1551.54 3879.19 2348.94 3879.19 2348.94 3673.06 4280.05 3678.49"
                fill="#f70b0b" opacity="0" stroke="none" stroke-miterlimit="1" stroke-width="1" />
            <polygon id="_04-2" data-name="04"
                points="2348.94 4182.96 2348.94 3879.19 1567.81 3879.19 1567.81 2973.3 775.84 2973.3 775.84 5040.03 1101.31 5040.03 1101.31 5815.73 2766.62 5815.73 2766.62 5631.3 3146.34 5631.3 3146.34 5040.03 2560.49 5040.03 2560.49 4394.52 2348.94 4394.52 2348.94 4182.96"
                fill="#f70b0b" opacity="0" stroke="none" stroke-miterlimit="1" stroke-width="1" />
            <polygon id="_05-2" data-name="05"
                points="4974.39 4394.52 5516.84 4394.52 5516.84 5815.73 3927.46 5815.73 3927.46 5625.87 3146.34 5625.87 3146.34 4394.52 3585.72 4394.52 3585.72 5040.03 4155.29 5040.03 4155.29 4394.52 4974.39 4394.52"
                fill="#f70b0b" opacity="0" stroke="none" stroke-miterlimit="1" stroke-width="1" />
        </g>
    </g>
</svg>