<svg id="Layer_1" data-name="Layer 1" xmlns="http://www.w3.org/2000/svg" width="16000" height="8192"
    viewBox="0 0 16000 8192">
    <g id="Root">
        <g id="A19">
            <polygon id="_01" data-name="01"
                points="11508.43 5797.92 11508.43 4384.55 12139.31 4384.55 12139.31 5027.65 12706.61 5027.65 12706.61 4384.55 13161.43 4384.55 13161.43 5609.63 12334.93 5609.63 12334.93 5797.92 11508.43 5797.92"
                fill="#f90606" opacity="0" stroke="#000" stroke-miterlimit="10" />
            <polygon id="_02" data-name="02"
                points="13936.59 4171.81 13936.59 3873.48 14721.52 3873.48 14721.52 3005.41 15511.35 3005.41 15511.35 5032.55 15178.79 5032.55 15178.79 5788.14 14403.64 5788.14 14403.64 5621.86 13149.21 5621.86 13149.21 5027.65 13716.51 5027.65 13716.51 4374.77 13936.59 4374.77 13936.59 4171.81"
                fill="#f90606" opacity="0" stroke="#000" stroke-miterlimit="10" />
            <polygon id="_03" data-name="03"
                points="12010.55 3672.03 13929.5 3672.03 13929.5 3874.38 14732.09 3874.38 14732.09 2746.66 14427.43 2746.66 14427.43 2412.43 13640.75 2412.43 13640.75 2091.85 12849.52 2091.85 12849.52 2060.02 12010.55 2060.02 12010.55 3672.03"
                fill="#f90606" opacity="0" stroke="#000" stroke-miterlimit="10" />
            <polygon id="_04" data-name="04"
                points="12008.35 3669.92 12008.35 2066.89 11165.21 2066.89 11165.21 2104.48 10373.09 2104.48 10373.09 2410.59 9589.03 2410.59 9589.03 2746.23 9282.93 2746.23 9282.93 3871.31 10077.73 3871.31 10077.73 3669.92 12008.35 3669.92"
                fill="#f90606" opacity="0" stroke="#000" stroke-miterlimit="10" />
            <polygon id="_05" data-name="05"
                points="10072.36 4163.99 10072.36 3873.99 9296.35 3873.99 9296.35 2971.78 8501.55 2971.78 8501.55 5028.6 8834.51 5028.6 8834.51 5793.87 10408 5793.87 10408 5616.65 10773.18 5616.65 10773.18 5020.55 10206.62 5020.55 10206.62 4382.83 10066.99 4382.83 10072.36 4163.99"
                fill="#f90606" opacity="0" stroke="#000" stroke-miterlimit="10" />
        </g>
        <g id="A20">
            <polygon id="_01-2" data-name="01"
                points="6896.64 4376.62 6896.64 3867.59 7684.49 3867.59 7684.49 2969.74 8477.46 2969.74 8477.46 5028.9 8139.81 5028.9 8139.81 5796.3 6564.1 5796.3 6564.1 5614.68 6195.75 5614.68 6195.75 5023.79 6771.3 5023.79 6771.3 4383.02 6896.64 4376.62"
                fill="#f90606" opacity="0" stroke="#000" stroke-miterlimit="10" />
            <polygon id="_02-2" data-name="02"
                points="4969.77 3671.09 6900.4 3671.09 6900.4 3869.24 7692.97 3869.24 7692.97 2741.34 7383.06 2741.34 7383.06 2413.64 5813.15 2413.64 5813.15 2380.62 4969.77 2380.62 4969.77 3671.09"
                fill="#f90606" opacity="0" stroke="#000" stroke-miterlimit="10" />
            <polygon id="_03-2" data-name="03"
                points="4972.31 3673.63 3034.06 3673.63 3034.06 3871.78 2251.65 3871.78 2251.65 2748.96 2559.02 2748.96 2559.02 2416.18 4131.47 2416.18 4131.47 2378.08 4972.31 2378.08 4972.31 3673.63"
                fill="#f90606" opacity="0" stroke="#000" stroke-miterlimit="10" />
            <polygon id="_04-2" data-name="04"
                points="3039.14 4171.53 3039.14 3871.78 2246.57 3871.78 2246.57 3259.56 1362.54 3259.56 1362.54 4379.84 1004.36 4379.84 1004.36 4956.49 1357.46 4956.49 1357.46 5218.14 1768.99 5218.14 1768.99 5794.78 2597.13 5794.78 2597.13 5218.14 2021.75 5218.14 2021.75 4572.9 2594.59 4572.9 2594.59 4384.92 3039.14 4384.92 3039.14 4171.53"
                fill="#f90606" opacity="0" stroke="#000" stroke-miterlimit="10" />
            <polygon id="_05-2" data-name="05"
                points="2592.05 4387.46 3946.03 4387.46 3946.03 4829.47 4395.66 4829.47 4395.66 5637.29 4141.63 5637.29 4141.63 5929.42 3384.62 5929.42 3384.62 5797.32 2592.05 5797.32 2592.05 4387.46"
                fill="#f90606" opacity="0" stroke="#000" stroke-miterlimit="10" />
            <polygon id="_06" data-name="06"
                points="5409.24 4382.38 5409.24 5939.58 4642.07 5939.58 4642.07 5629.67 4388.04 5629.67 4388.04 4829.47 4847.84 4829.47 4847.84 4382.38 5409.24 4382.38"
                fill="#f90606" opacity="0" stroke="#000" stroke-miterlimit="10" />
        </g>
    </g>
</svg>